<svg xmlns="http://www.w3.org/2000/svg" width="1202" height="644" viewBox="0 0 1202 644">
<rect width="100%" height="100%" fill="#101010"/>
<g font-family="SFMono-Regular, Menlo, Consolas, monospace" font-size="14" xml:space="preserve">
<text x="16" y="24" fill="#E9E6DC" font-weight="700">E</text>
<text x="25" y="24" fill="#E9E6DC" font-weight="700">S</text>
<text x="34" y="24" fill="#E9E6DC" font-weight="700">T</text>
<text x="43" y="24" fill="#E9E6DC" font-weight="700">E</text>
<text x="52" y="24" fill="#E9E6DC" font-weight="700">L</text>
<text x="61" y="24" fill="#E9E6DC" font-weight="700">L</text>
<text x="70" y="24" fill="#E9E6DC" font-weight="700">E</text>
<text x="97" y="24" fill="#C8C2B3" font-weight="400">·</text>
<text x="124" y="24" fill="#E9E6DC" font-weight="400">u</text>
<text x="133" y="24" fill="#E9E6DC" font-weight="400">q</text>
<text x="142" y="24" fill="#E9E6DC" font-weight="400">e</text>
<text x="151" y="24" fill="#E9E6DC" font-weight="400">u</text>
<text x="160" y="24" fill="#E9E6DC" font-weight="400">/</text>
<text x="169" y="24" fill="#E9E6DC" font-weight="400">e</text>
<text x="178" y="24" fill="#E9E6DC" font-weight="400">s</text>
<text x="187" y="24" fill="#E9E6DC" font-weight="400">t</text>
<text x="196" y="24" fill="#E9E6DC" font-weight="400">e</text>
<text x="205" y="24" fill="#E9E6DC" font-weight="400">l</text>
<text x="214" y="24" fill="#E9E6DC" font-weight="400">l</text>
<text x="223" y="24" fill="#E9E6DC" font-weight="400">e</text>
<text x="16" y="60" fill="#6F6A5E" font-weight="400">╌</text>
<text x="25" y="60" fill="#6F6A5E" font-weight="400">╌</text>
<text x="43" y="60" fill="#948E81" font-weight="400">s</text>
<text x="52" y="60" fill="#948E81" font-weight="400">e</text>
<text x="61" y="60" fill="#948E81" font-weight="400">s</text>
<text x="70" y="60" fill="#948E81" font-weight="400">s</text>
<text x="79" y="60" fill="#948E81" font-weight="400">i</text>
<text x="88" y="60" fill="#948E81" font-weight="400">o</text>
<text x="97" y="60" fill="#948E81" font-weight="400">n</text>
<text x="115" y="60" fill="#6F6A5E" font-weight="400">·</text>
<text x="133" y="60" fill="#7FB3C8" font-weight="400">u</text>
<text x="142" y="60" fill="#7FB3C8" font-weight="400">q</text>
<text x="151" y="60" fill="#7FB3C8" font-weight="400">e</text>
<text x="160" y="60" fill="#7FB3C8" font-weight="400">u</text>
<text x="169" y="60" fill="#7FB3C8" font-weight="400">/</text>
<text x="178" y="60" fill="#7FB3C8" font-weight="400">e</text>
<text x="187" y="60" fill="#7FB3C8" font-weight="400">s</text>
<text x="196" y="60" fill="#7FB3C8" font-weight="400">t</text>
<text x="205" y="60" fill="#7FB3C8" font-weight="400">e</text>
<text x="214" y="60" fill="#7FB3C8" font-weight="400">l</text>
<text x="223" y="60" fill="#7FB3C8" font-weight="400">l</text>
<text x="232" y="60" fill="#7FB3C8" font-weight="400">e</text>
<text x="250" y="60" fill="#6F6A5E" font-weight="400">╌</text>
<text x="259" y="60" fill="#6F6A5E" font-weight="400">╌</text>
<text x="268" y="60" fill="#6F6A5E" font-weight="400">╌</text>
<text x="277" y="60" fill="#6F6A5E" font-weight="400">╌</text>
<text x="286" y="60" fill="#6F6A5E" font-weight="400">╌</text>
<text x="295" y="60" fill="#6F6A5E" font-weight="400">╌</text>
<text x="304" y="60" fill="#6F6A5E" font-weight="400">╌</text>
<text x="313" y="60" fill="#6F6A5E" font-weight="400">╌</text>
<text x="322" y="60" fill="#6F6A5E" font-weight="400">╌</text>
<text x="331" y="60" fill="#6F6A5E" font-weight="400">╌</text>
<text x="340" y="60" fill="#6F6A5E" font-weight="400">╌</text>
<text x="349" y="60" fill="#6F6A5E" font-weight="400">╌</text>
<text x="358" y="60" fill="#6F6A5E" font-weight="400">╌</text>
<text x="367" y="60" fill="#6F6A5E" font-weight="400">╌</text>
<text x="376" y="60" fill="#6F6A5E" font-weight="400">╌</text>
<text x="385" y="60" fill="#6F6A5E" font-weight="400">╌</text>
<text x="394" y="60" fill="#6F6A5E" font-weight="400">╌</text>
<text x="403" y="60" fill="#6F6A5E" font-weight="400">╌</text>
<text x="412" y="60" fill="#6F6A5E" font-weight="400">╌</text>
<text x="421" y="60" fill="#6F6A5E" font-weight="400">╌</text>
<text x="430" y="60" fill="#6F6A5E" font-weight="400">╌</text>
<text x="439" y="60" fill="#6F6A5E" font-weight="400">╌</text>
<text x="448" y="60" fill="#6F6A5E" font-weight="400">╌</text>
<text x="457" y="60" fill="#6F6A5E" font-weight="400">╌</text>
<text x="466" y="60" fill="#6F6A5E" font-weight="400">╌</text>
<text x="475" y="60" fill="#6F6A5E" font-weight="400">╌</text>
<text x="484" y="60" fill="#6F6A5E" font-weight="400">╌</text>
<text x="493" y="60" fill="#6F6A5E" font-weight="400">╌</text>
<text x="502" y="60" fill="#6F6A5E" font-weight="400">╌</text>
<text x="511" y="60" fill="#6F6A5E" font-weight="400">╌</text>
<text x="520" y="60" fill="#6F6A5E" font-weight="400">╌</text>
<text x="529" y="60" fill="#6F6A5E" font-weight="400">╌</text>
<text x="538" y="60" fill="#6F6A5E" font-weight="400">╌</text>
<text x="547" y="60" fill="#6F6A5E" font-weight="400">╌</text>
<text x="556" y="60" fill="#6F6A5E" font-weight="400">╌</text>
<text x="565" y="60" fill="#6F6A5E" font-weight="400">╌</text>
<text x="574" y="60" fill="#6F6A5E" font-weight="400">╌</text>
<text x="583" y="60" fill="#6F6A5E" font-weight="400">╌</text>
<text x="592" y="60" fill="#6F6A5E" font-weight="400">╌</text>
<text x="601" y="60" fill="#6F6A5E" font-weight="400">╌</text>
<text x="610" y="60" fill="#6F6A5E" font-weight="400">╌</text>
<text x="619" y="60" fill="#6F6A5E" font-weight="400">╌</text>
<text x="628" y="60" fill="#6F6A5E" font-weight="400">╌</text>
<text x="637" y="60" fill="#6F6A5E" font-weight="400">╌</text>
<text x="646" y="60" fill="#6F6A5E" font-weight="400">╌</text>
<text x="655" y="60" fill="#6F6A5E" font-weight="400">╌</text>
<text x="664" y="60" fill="#6F6A5E" font-weight="400">╌</text>
<text x="673" y="60" fill="#6F6A5E" font-weight="400">╌</text>
<text x="682" y="60" fill="#6F6A5E" font-weight="400">╌</text>
<text x="691" y="60" fill="#6F6A5E" font-weight="400">╌</text>
<text x="700" y="60" fill="#6F6A5E" font-weight="400">╌</text>
<text x="709" y="60" fill="#6F6A5E" font-weight="400">╌</text>
<text x="718" y="60" fill="#6F6A5E" font-weight="400">╌</text>
<text x="727" y="60" fill="#6F6A5E" font-weight="400">╌</text>
<text x="736" y="60" fill="#6F6A5E" font-weight="400">╌</text>
<text x="745" y="60" fill="#6F6A5E" font-weight="400">╌</text>
<text x="754" y="60" fill="#6F6A5E" font-weight="400">╌</text>
<text x="763" y="60" fill="#6F6A5E" font-weight="400">╌</text>
<text x="772" y="60" fill="#6F6A5E" font-weight="400">╌</text>
<text x="781" y="60" fill="#6F6A5E" font-weight="400">╌</text>
<text x="790" y="60" fill="#6F6A5E" font-weight="400">╌</text>
<text x="799" y="60" fill="#6F6A5E" font-weight="400">╌</text>
<text x="808" y="60" fill="#6F6A5E" font-weight="400">╌</text>
<text x="817" y="60" fill="#6F6A5E" font-weight="400">╌</text>
<text x="826" y="60" fill="#6F6A5E" font-weight="400">╌</text>
<text x="835" y="60" fill="#6F6A5E" font-weight="400">╌</text>
<text x="844" y="60" fill="#6F6A5E" font-weight="400">╌</text>
<text x="853" y="60" fill="#6F6A5E" font-weight="400">╌</text>
<text x="862" y="60" fill="#6F6A5E" font-weight="400">╌</text>
<text x="871" y="60" fill="#6F6A5E" font-weight="400">╌</text>
<text x="880" y="60" fill="#6F6A5E" font-weight="400">╌</text>
<text x="889" y="60" fill="#6F6A5E" font-weight="400">╌</text>
<text x="898" y="60" fill="#6F6A5E" font-weight="400">╌</text>
<text x="907" y="60" fill="#6F6A5E" font-weight="400">╌</text>
<text x="916" y="60" fill="#6F6A5E" font-weight="400">╌</text>
<text x="925" y="60" fill="#6F6A5E" font-weight="400">╌</text>
<text x="934" y="60" fill="#6F6A5E" font-weight="400">╌</text>
<text x="943" y="60" fill="#6F6A5E" font-weight="400">╌</text>
<text x="952" y="60" fill="#6F6A5E" font-weight="400">╌</text>
<text x="961" y="60" fill="#6F6A5E" font-weight="400">╌</text>
<text x="970" y="60" fill="#6F6A5E" font-weight="400">╌</text>
<text x="979" y="60" fill="#6F6A5E" font-weight="400">╌</text>
<text x="988" y="60" fill="#6F6A5E" font-weight="400">╌</text>
<text x="997" y="60" fill="#6F6A5E" font-weight="400">╌</text>
<text x="1006" y="60" fill="#6F6A5E" font-weight="400">╌</text>
<text x="1015" y="60" fill="#6F6A5E" font-weight="400">╌</text>
<text x="1024" y="60" fill="#6F6A5E" font-weight="400">╌</text>
<text x="1033" y="60" fill="#6F6A5E" font-weight="400">╌</text>
<text x="1042" y="60" fill="#6F6A5E" font-weight="400">╌</text>
<text x="1051" y="60" fill="#6F6A5E" font-weight="400">╌</text>
<text x="1060" y="60" fill="#6F6A5E" font-weight="400">╌</text>
<text x="1069" y="60" fill="#6F6A5E" font-weight="400">╌</text>
<text x="1078" y="60" fill="#6F6A5E" font-weight="400">╌</text>
<text x="1087" y="60" fill="#6F6A5E" font-weight="400">╌</text>
<text x="1096" y="60" fill="#6F6A5E" font-weight="400">╌</text>
<text x="1105" y="60" fill="#6F6A5E" font-weight="400">╌</text>
<text x="1114" y="60" fill="#6F6A5E" font-weight="400">╌</text>
<text x="1123" y="60" fill="#6F6A5E" font-weight="400">╌</text>
<text x="1132" y="60" fill="#6F6A5E" font-weight="400">╌</text>
<text x="1141" y="60" fill="#6F6A5E" font-weight="400">╌</text>
<text x="1150" y="60" fill="#6F6A5E" font-weight="400">╌</text>
<text x="1159" y="60" fill="#6F6A5E" font-weight="400">╌</text>
<text x="1168" y="60" fill="#6F6A5E" font-weight="400">╌</text>
<text x="1177" y="60" fill="#6F6A5E" font-weight="400">╌</text>
<text x="16" y="546" fill="#E9E6DC" font-weight="400">┌</text>
<text x="34" y="546" fill="#E9E6DC" font-weight="400">M</text>
<text x="43" y="546" fill="#E9E6DC" font-weight="400">O</text>
<text x="52" y="546" fill="#E9E6DC" font-weight="400">N</text>
<text x="61" y="546" fill="#E9E6DC" font-weight="400">I</text>
<text x="70" y="546" fill="#E9E6DC" font-weight="400">T</text>
<text x="79" y="546" fill="#E9E6DC" font-weight="400">O</text>
<text x="88" y="546" fill="#E9E6DC" font-weight="400">R</text>
<text x="106" y="546" fill="#E9E6DC" font-weight="400">S</text>
<text x="115" y="546" fill="#E9E6DC" font-weight="400">E</text>
<text x="124" y="546" fill="#E9E6DC" font-weight="400">T</text>
<text x="133" y="546" fill="#E9E6DC" font-weight="400">T</text>
<text x="142" y="546" fill="#E9E6DC" font-weight="400">I</text>
<text x="151" y="546" fill="#E9E6DC" font-weight="400">N</text>
<text x="160" y="546" fill="#E9E6DC" font-weight="400">G</text>
<text x="169" y="546" fill="#E9E6DC" font-weight="400">S</text>
<text x="187" y="546" fill="#E9E6DC" font-weight="400">─</text>
<text x="196" y="546" fill="#E9E6DC" font-weight="400">─</text>
<text x="205" y="546" fill="#E9E6DC" font-weight="400">─</text>
<text x="214" y="546" fill="#E9E6DC" font-weight="400">─</text>
<text x="223" y="546" fill="#E9E6DC" font-weight="400">─</text>
<text x="232" y="546" fill="#E9E6DC" font-weight="400">─</text>
<text x="241" y="546" fill="#E9E6DC" font-weight="400">─</text>
<text x="250" y="546" fill="#E9E6DC" font-weight="400">─</text>
<text x="259" y="546" fill="#E9E6DC" font-weight="400">─</text>
<text x="268" y="546" fill="#E9E6DC" font-weight="400">─</text>
<text x="277" y="546" fill="#E9E6DC" font-weight="400">─</text>
<text x="286" y="546" fill="#E9E6DC" font-weight="400">─</text>
<text x="295" y="546" fill="#E9E6DC" font-weight="400">─</text>
<text x="304" y="546" fill="#E9E6DC" font-weight="400">─</text>
<text x="313" y="546" fill="#E9E6DC" font-weight="400">─</text>
<text x="322" y="546" fill="#E9E6DC" font-weight="400">─</text>
<text x="331" y="546" fill="#E9E6DC" font-weight="400">─</text>
<text x="340" y="546" fill="#E9E6DC" font-weight="400">─</text>
<text x="349" y="546" fill="#E9E6DC" font-weight="400">─</text>
<text x="358" y="546" fill="#E9E6DC" font-weight="400">─</text>
<text x="367" y="546" fill="#E9E6DC" font-weight="400">─</text>
<text x="376" y="546" fill="#E9E6DC" font-weight="400">─</text>
<text x="385" y="546" fill="#E9E6DC" font-weight="400">─</text>
<text x="394" y="546" fill="#E9E6DC" font-weight="400">─</text>
<text x="403" y="546" fill="#E9E6DC" font-weight="400">─</text>
<text x="412" y="546" fill="#E9E6DC" font-weight="400">─</text>
<text x="421" y="546" fill="#E9E6DC" font-weight="400">─</text>
<text x="430" y="546" fill="#E9E6DC" font-weight="400">─</text>
<text x="439" y="546" fill="#E9E6DC" font-weight="400">─</text>
<text x="448" y="546" fill="#E9E6DC" font-weight="400">─</text>
<text x="457" y="546" fill="#E9E6DC" font-weight="400">─</text>
<text x="466" y="546" fill="#E9E6DC" font-weight="400">─</text>
<text x="475" y="546" fill="#E9E6DC" font-weight="400">─</text>
<text x="484" y="546" fill="#E9E6DC" font-weight="400">─</text>
<text x="493" y="546" fill="#E9E6DC" font-weight="400">─</text>
<text x="502" y="546" fill="#E9E6DC" font-weight="400">─</text>
<text x="511" y="546" fill="#E9E6DC" font-weight="400">─</text>
<text x="520" y="546" fill="#E9E6DC" font-weight="400">─</text>
<text x="529" y="546" fill="#E9E6DC" font-weight="400">─</text>
<text x="538" y="546" fill="#E9E6DC" font-weight="400">─</text>
<text x="547" y="546" fill="#E9E6DC" font-weight="400">─</text>
<text x="556" y="546" fill="#E9E6DC" font-weight="400">─</text>
<text x="565" y="546" fill="#E9E6DC" font-weight="400">─</text>
<text x="574" y="546" fill="#E9E6DC" font-weight="400">─</text>
<text x="583" y="546" fill="#E9E6DC" font-weight="400">─</text>
<text x="592" y="546" fill="#E9E6DC" font-weight="400">─</text>
<text x="601" y="546" fill="#E9E6DC" font-weight="400">─</text>
<text x="610" y="546" fill="#E9E6DC" font-weight="400">─</text>
<text x="619" y="546" fill="#E9E6DC" font-weight="400">─</text>
<text x="628" y="546" fill="#E9E6DC" font-weight="400">─</text>
<text x="637" y="546" fill="#E9E6DC" font-weight="400">─</text>
<text x="646" y="546" fill="#E9E6DC" font-weight="400">─</text>
<text x="655" y="546" fill="#E9E6DC" font-weight="400">─</text>
<text x="664" y="546" fill="#E9E6DC" font-weight="400">─</text>
<text x="673" y="546" fill="#E9E6DC" font-weight="400">─</text>
<text x="682" y="546" fill="#E9E6DC" font-weight="400">─</text>
<text x="691" y="546" fill="#E9E6DC" font-weight="400">─</text>
<text x="700" y="546" fill="#E9E6DC" font-weight="400">─</text>
<text x="709" y="546" fill="#E9E6DC" font-weight="400">─</text>
<text x="718" y="546" fill="#E9E6DC" font-weight="400">─</text>
<text x="727" y="546" fill="#E9E6DC" font-weight="400">─</text>
<text x="736" y="546" fill="#E9E6DC" font-weight="400">─</text>
<text x="745" y="546" fill="#E9E6DC" font-weight="400">─</text>
<text x="754" y="546" fill="#E9E6DC" font-weight="400">─</text>
<text x="763" y="546" fill="#E9E6DC" font-weight="400">─</text>
<text x="772" y="546" fill="#E9E6DC" font-weight="400">─</text>
<text x="781" y="546" fill="#E9E6DC" font-weight="400">─</text>
<text x="790" y="546" fill="#E9E6DC" font-weight="400">─</text>
<text x="799" y="546" fill="#E9E6DC" font-weight="400">─</text>
<text x="808" y="546" fill="#E9E6DC" font-weight="400">─</text>
<text x="817" y="546" fill="#E9E6DC" font-weight="400">─</text>
<text x="826" y="546" fill="#E9E6DC" font-weight="400">─</text>
<text x="835" y="546" fill="#E9E6DC" font-weight="400">─</text>
<text x="844" y="546" fill="#E9E6DC" font-weight="400">─</text>
<text x="853" y="546" fill="#E9E6DC" font-weight="400">─</text>
<text x="862" y="546" fill="#E9E6DC" font-weight="400">─</text>
<text x="871" y="546" fill="#E9E6DC" font-weight="400">─</text>
<text x="880" y="546" fill="#E9E6DC" font-weight="400">─</text>
<text x="889" y="546" fill="#E9E6DC" font-weight="400">─</text>
<text x="898" y="546" fill="#E9E6DC" font-weight="400">─</text>
<text x="907" y="546" fill="#E9E6DC" font-weight="400">─</text>
<text x="916" y="546" fill="#E9E6DC" font-weight="400">─</text>
<text x="925" y="546" fill="#E9E6DC" font-weight="400">─</text>
<text x="934" y="546" fill="#E9E6DC" font-weight="400">─</text>
<text x="943" y="546" fill="#E9E6DC" font-weight="400">─</text>
<text x="952" y="546" fill="#E9E6DC" font-weight="400">─</text>
<text x="961" y="546" fill="#E9E6DC" font-weight="400">─</text>
<text x="970" y="546" fill="#E9E6DC" font-weight="400">─</text>
<text x="979" y="546" fill="#E9E6DC" font-weight="400">─</text>
<text x="988" y="546" fill="#E9E6DC" font-weight="400">─</text>
<text x="997" y="546" fill="#E9E6DC" font-weight="400">─</text>
<text x="1006" y="546" fill="#E9E6DC" font-weight="400">─</text>
<text x="1015" y="546" fill="#E9E6DC" font-weight="400">─</text>
<text x="1024" y="546" fill="#E9E6DC" font-weight="400">─</text>
<text x="1033" y="546" fill="#E9E6DC" font-weight="400">─</text>
<text x="1042" y="546" fill="#E9E6DC" font-weight="400">─</text>
<text x="1051" y="546" fill="#E9E6DC" font-weight="400">─</text>
<text x="1060" y="546" fill="#E9E6DC" font-weight="400">─</text>
<text x="1069" y="546" fill="#E9E6DC" font-weight="400">─</text>
<text x="1078" y="546" fill="#E9E6DC" font-weight="400">─</text>
<text x="1087" y="546" fill="#E9E6DC" font-weight="400">─</text>
<text x="1096" y="546" fill="#E9E6DC" font-weight="400">─</text>
<text x="1105" y="546" fill="#E9E6DC" font-weight="400">─</text>
<text x="1114" y="546" fill="#E9E6DC" font-weight="400">─</text>
<text x="1123" y="546" fill="#E9E6DC" font-weight="400">─</text>
<text x="1132" y="546" fill="#E9E6DC" font-weight="400">─</text>
<text x="1141" y="546" fill="#E9E6DC" font-weight="400">─</text>
<text x="1150" y="546" fill="#E9E6DC" font-weight="400">─</text>
<text x="1159" y="546" fill="#E9E6DC" font-weight="400">─</text>
<text x="1168" y="546" fill="#E9E6DC" font-weight="400">─</text>
<text x="1177" y="546" fill="#E9E6DC" font-weight="400">┐</text>
<text x="16" y="564" fill="#E9E6DC" font-weight="400">│</text>
<text x="25" y="564" fill="#E9E6DC" font-weight="700">&gt;</text>
<text x="43" y="564" fill="#E9E6DC" font-weight="700">1</text>
<text x="61" y="564" fill="#E9E6DC" font-weight="700">D</text>
<text x="70" y="564" fill="#E9E6DC" font-weight="700">a</text>
<text x="79" y="564" fill="#E9E6DC" font-weight="700">t</text>
<text x="88" y="564" fill="#E9E6DC" font-weight="700">a</text>
<text x="106" y="564" fill="#E9E6DC" font-weight="700">r</text>
<text x="115" y="564" fill="#E9E6DC" font-weight="700">e</text>
<text x="124" y="564" fill="#E9E6DC" font-weight="700">t</text>
<text x="133" y="564" fill="#E9E6DC" font-weight="700">e</text>
<text x="142" y="564" fill="#E9E6DC" font-weight="700">n</text>
<text x="151" y="564" fill="#E9E6DC" font-weight="700">t</text>
<text x="160" y="564" fill="#E9E6DC" font-weight="700">i</text>
<text x="169" y="564" fill="#E9E6DC" font-weight="700">o</text>
<text x="178" y="564" fill="#E9E6DC" font-weight="700">n</text>
<text x="196" y="564" fill="#E9E6DC" font-weight="700">(</text>
<text x="205" y="564" fill="#E9E6DC" font-weight="700">d</text>
<text x="214" y="564" fill="#E9E6DC" font-weight="700">a</text>
<text x="223" y="564" fill="#E9E6DC" font-weight="700">y</text>
<text x="232" y="564" fill="#E9E6DC" font-weight="700">s</text>
<text x="241" y="564" fill="#E9E6DC" font-weight="700">)</text>
<text x="295" y="564" fill="#707478" font-weight="400">3</text>
<text x="304" y="564" fill="#707478" font-weight="400">0</text>
<text x="322" y="564" fill="#707478" font-weight="400">·</text>
<text x="340" y="564" fill="#707478" font-weight="400">t</text>
<text x="349" y="564" fill="#707478" font-weight="400">e</text>
<text x="358" y="564" fill="#707478" font-weight="400">a</text>
<text x="367" y="564" fill="#707478" font-weight="400">m</text>
<text x="385" y="564" fill="#707478" font-weight="400">·</text>
<text x="403" y="564" fill="#707478" font-weight="400">s</text>
<text x="412" y="564" fill="#707478" font-weight="400">e</text>
<text x="421" y="564" fill="#707478" font-weight="400">r</text>
<text x="430" y="564" fill="#707478" font-weight="400">v</text>
<text x="439" y="564" fill="#707478" font-weight="400">e</text>
<text x="448" y="564" fill="#707478" font-weight="400">r</text>
<text x="1177" y="564" fill="#E9E6DC" font-weight="400">│</text>
<text x="16" y="582" fill="#E9E6DC" font-weight="400">│</text>
<text x="25" y="582" fill="#707478" font-weight="400">↑</text>
<text x="34" y="582" fill="#707478" font-weight="400">↓</text>
<text x="52" y="582" fill="#707478" font-weight="400">n</text>
<text x="61" y="582" fill="#707478" font-weight="400">a</text>
<text x="70" y="582" fill="#707478" font-weight="400">v</text>
<text x="79" y="582" fill="#707478" font-weight="400">i</text>
<text x="88" y="582" fill="#707478" font-weight="400">g</text>
<text x="97" y="582" fill="#707478" font-weight="400">a</text>
<text x="106" y="582" fill="#707478" font-weight="400">t</text>
<text x="115" y="582" fill="#707478" font-weight="400">e</text>
<text x="133" y="582" fill="#707478" font-weight="400">·</text>
<text x="151" y="582" fill="#707478" font-weight="400">1</text>
<text x="160" y="582" fill="#707478" font-weight="400">-</text>
<text x="169" y="582" fill="#707478" font-weight="400">9</text>
<text x="187" y="582" fill="#707478" font-weight="400">o</text>
<text x="196" y="582" fill="#707478" font-weight="400">r</text>
<text x="214" y="582" fill="#707478" font-weight="400">E</text>
<text x="223" y="582" fill="#707478" font-weight="400">n</text>
<text x="232" y="582" fill="#707478" font-weight="400">t</text>
<text x="241" y="582" fill="#707478" font-weight="400">e</text>
<text x="250" y="582" fill="#707478" font-weight="400">r</text>
<text x="268" y="582" fill="#707478" font-weight="400">s</text>
<text x="277" y="582" fill="#707478" font-weight="400">e</text>
<text x="286" y="582" fill="#707478" font-weight="400">l</text>
<text x="295" y="582" fill="#707478" font-weight="400">e</text>
<text x="304" y="582" fill="#707478" font-weight="400">c</text>
<text x="313" y="582" fill="#707478" font-weight="400">t</text>
<text x="331" y="582" fill="#707478" font-weight="400">·</text>
<text x="349" y="582" fill="#707478" font-weight="400">E</text>
<text x="358" y="582" fill="#707478" font-weight="400">s</text>
<text x="367" y="582" fill="#707478" font-weight="400">c</text>
<text x="385" y="582" fill="#707478" font-weight="400">c</text>
<text x="394" y="582" fill="#707478" font-weight="400">l</text>
<text x="403" y="582" fill="#707478" font-weight="400">o</text>
<text x="412" y="582" fill="#707478" font-weight="400">s</text>
<text x="421" y="582" fill="#707478" font-weight="400">e</text>
<text x="1177" y="582" fill="#E9E6DC" font-weight="400">│</text>
<text x="16" y="600" fill="#E9E6DC" font-weight="400">└</text>
<text x="25" y="600" fill="#E9E6DC" font-weight="400">─</text>
<text x="34" y="600" fill="#E9E6DC" font-weight="400">─</text>
<text x="43" y="600" fill="#E9E6DC" font-weight="400">─</text>
<text x="52" y="600" fill="#E9E6DC" font-weight="400">─</text>
<text x="61" y="600" fill="#E9E6DC" font-weight="400">─</text>
<text x="70" y="600" fill="#E9E6DC" font-weight="400">─</text>
<text x="79" y="600" fill="#E9E6DC" font-weight="400">─</text>
<text x="88" y="600" fill="#E9E6DC" font-weight="400">─</text>
<text x="97" y="600" fill="#E9E6DC" font-weight="400">─</text>
<text x="106" y="600" fill="#E9E6DC" font-weight="400">─</text>
<text x="115" y="600" fill="#E9E6DC" font-weight="400">─</text>
<text x="124" y="600" fill="#E9E6DC" font-weight="400">─</text>
<text x="133" y="600" fill="#E9E6DC" font-weight="400">─</text>
<text x="142" y="600" fill="#E9E6DC" font-weight="400">─</text>
<text x="151" y="600" fill="#E9E6DC" font-weight="400">─</text>
<text x="160" y="600" fill="#E9E6DC" font-weight="400">─</text>
<text x="169" y="600" fill="#E9E6DC" font-weight="400">─</text>
<text x="178" y="600" fill="#E9E6DC" font-weight="400">─</text>
<text x="187" y="600" fill="#E9E6DC" font-weight="400">─</text>
<text x="196" y="600" fill="#E9E6DC" font-weight="400">─</text>
<text x="205" y="600" fill="#E9E6DC" font-weight="400">─</text>
<text x="214" y="600" fill="#E9E6DC" font-weight="400">─</text>
<text x="223" y="600" fill="#E9E6DC" font-weight="400">─</text>
<text x="232" y="600" fill="#E9E6DC" font-weight="400">─</text>
<text x="241" y="600" fill="#E9E6DC" font-weight="400">─</text>
<text x="250" y="600" fill="#E9E6DC" font-weight="400">─</text>
<text x="259" y="600" fill="#E9E6DC" font-weight="400">─</text>
<text x="268" y="600" fill="#E9E6DC" font-weight="400">─</text>
<text x="277" y="600" fill="#E9E6DC" font-weight="400">─</text>
<text x="286" y="600" fill="#E9E6DC" font-weight="400">─</text>
<text x="295" y="600" fill="#E9E6DC" font-weight="400">─</text>
<text x="304" y="600" fill="#E9E6DC" font-weight="400">─</text>
<text x="313" y="600" fill="#E9E6DC" font-weight="400">─</text>
<text x="322" y="600" fill="#E9E6DC" font-weight="400">─</text>
<text x="331" y="600" fill="#E9E6DC" font-weight="400">─</text>
<text x="340" y="600" fill="#E9E6DC" font-weight="400">─</text>
<text x="349" y="600" fill="#E9E6DC" font-weight="400">─</text>
<text x="358" y="600" fill="#E9E6DC" font-weight="400">─</text>
<text x="367" y="600" fill="#E9E6DC" font-weight="400">─</text>
<text x="376" y="600" fill="#E9E6DC" font-weight="400">─</text>
<text x="385" y="600" fill="#E9E6DC" font-weight="400">─</text>
<text x="394" y="600" fill="#E9E6DC" font-weight="400">─</text>
<text x="403" y="600" fill="#E9E6DC" font-weight="400">─</text>
<text x="412" y="600" fill="#E9E6DC" font-weight="400">─</text>
<text x="421" y="600" fill="#E9E6DC" font-weight="400">─</text>
<text x="430" y="600" fill="#E9E6DC" font-weight="400">─</text>
<text x="439" y="600" fill="#E9E6DC" font-weight="400">─</text>
<text x="448" y="600" fill="#E9E6DC" font-weight="400">─</text>
<text x="457" y="600" fill="#E9E6DC" font-weight="400">─</text>
<text x="466" y="600" fill="#E9E6DC" font-weight="400">─</text>
<text x="475" y="600" fill="#E9E6DC" font-weight="400">─</text>
<text x="484" y="600" fill="#E9E6DC" font-weight="400">─</text>
<text x="493" y="600" fill="#E9E6DC" font-weight="400">─</text>
<text x="502" y="600" fill="#E9E6DC" font-weight="400">─</text>
<text x="511" y="600" fill="#E9E6DC" font-weight="400">─</text>
<text x="520" y="600" fill="#E9E6DC" font-weight="400">─</text>
<text x="529" y="600" fill="#E9E6DC" font-weight="400">─</text>
<text x="538" y="600" fill="#E9E6DC" font-weight="400">─</text>
<text x="547" y="600" fill="#E9E6DC" font-weight="400">─</text>
<text x="556" y="600" fill="#E9E6DC" font-weight="400">─</text>
<text x="565" y="600" fill="#E9E6DC" font-weight="400">─</text>
<text x="574" y="600" fill="#E9E6DC" font-weight="400">─</text>
<text x="583" y="600" fill="#E9E6DC" font-weight="400">─</text>
<text x="592" y="600" fill="#E9E6DC" font-weight="400">─</text>
<text x="601" y="600" fill="#E9E6DC" font-weight="400">─</text>
<text x="610" y="600" fill="#E9E6DC" font-weight="400">─</text>
<text x="619" y="600" fill="#E9E6DC" font-weight="400">─</text>
<text x="628" y="600" fill="#E9E6DC" font-weight="400">─</text>
<text x="637" y="600" fill="#E9E6DC" font-weight="400">─</text>
<text x="646" y="600" fill="#E9E6DC" font-weight="400">─</text>
<text x="655" y="600" fill="#E9E6DC" font-weight="400">─</text>
<text x="664" y="600" fill="#E9E6DC" font-weight="400">─</text>
<text x="673" y="600" fill="#E9E6DC" font-weight="400">─</text>
<text x="682" y="600" fill="#E9E6DC" font-weight="400">─</text>
<text x="691" y="600" fill="#E9E6DC" font-weight="400">─</text>
<text x="700" y="600" fill="#E9E6DC" font-weight="400">─</text>
<text x="709" y="600" fill="#E9E6DC" font-weight="400">─</text>
<text x="718" y="600" fill="#E9E6DC" font-weight="400">─</text>
<text x="727" y="600" fill="#E9E6DC" font-weight="400">─</text>
<text x="736" y="600" fill="#E9E6DC" font-weight="400">─</text>
<text x="745" y="600" fill="#E9E6DC" font-weight="400">─</text>
<text x="754" y="600" fill="#E9E6DC" font-weight="400">─</text>
<text x="763" y="600" fill="#E9E6DC" font-weight="400">─</text>
<text x="772" y="600" fill="#E9E6DC" font-weight="400">─</text>
<text x="781" y="600" fill="#E9E6DC" font-weight="400">─</text>
<text x="790" y="600" fill="#E9E6DC" font-weight="400">─</text>
<text x="799" y="600" fill="#E9E6DC" font-weight="400">─</text>
<text x="808" y="600" fill="#E9E6DC" font-weight="400">─</text>
<text x="817" y="600" fill="#E9E6DC" font-weight="400">─</text>
<text x="826" y="600" fill="#E9E6DC" font-weight="400">─</text>
<text x="835" y="600" fill="#E9E6DC" font-weight="400">─</text>
<text x="844" y="600" fill="#E9E6DC" font-weight="400">─</text>
<text x="853" y="600" fill="#E9E6DC" font-weight="400">─</text>
<text x="862" y="600" fill="#E9E6DC" font-weight="400">─</text>
<text x="871" y="600" fill="#E9E6DC" font-weight="400">─</text>
<text x="880" y="600" fill="#E9E6DC" font-weight="400">─</text>
<text x="889" y="600" fill="#E9E6DC" font-weight="400">─</text>
<text x="898" y="600" fill="#E9E6DC" font-weight="400">─</text>
<text x="907" y="600" fill="#E9E6DC" font-weight="400">─</text>
<text x="916" y="600" fill="#E9E6DC" font-weight="400">─</text>
<text x="925" y="600" fill="#E9E6DC" font-weight="400">─</text>
<text x="934" y="600" fill="#E9E6DC" font-weight="400">─</text>
<text x="943" y="600" fill="#E9E6DC" font-weight="400">─</text>
<text x="952" y="600" fill="#E9E6DC" font-weight="400">─</text>
<text x="961" y="600" fill="#E9E6DC" font-weight="400">─</text>
<text x="970" y="600" fill="#E9E6DC" font-weight="400">─</text>
<text x="979" y="600" fill="#E9E6DC" font-weight="400">─</text>
<text x="988" y="600" fill="#E9E6DC" font-weight="400">─</text>
<text x="997" y="600" fill="#E9E6DC" font-weight="400">─</text>
<text x="1006" y="600" fill="#E9E6DC" font-weight="400">─</text>
<text x="1015" y="600" fill="#E9E6DC" font-weight="400">─</text>
<text x="1024" y="600" fill="#E9E6DC" font-weight="400">─</text>
<text x="1033" y="600" fill="#E9E6DC" font-weight="400">─</text>
<text x="1042" y="600" fill="#E9E6DC" font-weight="400">─</text>
<text x="1051" y="600" fill="#E9E6DC" font-weight="400">─</text>
<text x="1060" y="600" fill="#E9E6DC" font-weight="400">─</text>
<text x="1069" y="600" fill="#E9E6DC" font-weight="400">─</text>
<text x="1078" y="600" fill="#E9E6DC" font-weight="400">─</text>
<text x="1087" y="600" fill="#E9E6DC" font-weight="400">─</text>
<text x="1096" y="600" fill="#E9E6DC" font-weight="400">─</text>
<text x="1105" y="600" fill="#E9E6DC" font-weight="400">─</text>
<text x="1114" y="600" fill="#E9E6DC" font-weight="400">─</text>
<text x="1123" y="600" fill="#E9E6DC" font-weight="400">─</text>
<text x="1132" y="600" fill="#E9E6DC" font-weight="400">─</text>
<text x="1141" y="600" fill="#E9E6DC" font-weight="400">─</text>
<text x="1150" y="600" fill="#E9E6DC" font-weight="400">─</text>
<text x="1159" y="600" fill="#E9E6DC" font-weight="400">─</text>
<text x="1168" y="600" fill="#E9E6DC" font-weight="400">─</text>
<text x="1177" y="600" fill="#E9E6DC" font-weight="400">┘</text>
<text x="16" y="618" fill="#C8C2B3" font-weight="400">t</text>
<text x="25" y="618" fill="#C8C2B3" font-weight="400">a</text>
<text x="34" y="618" fill="#C8C2B3" font-weight="400">b</text>
<text x="52" y="618" fill="#C8C2B3" font-weight="400">f</text>
<text x="61" y="618" fill="#C8C2B3" font-weight="400">o</text>
<text x="70" y="618" fill="#C8C2B3" font-weight="400">c</text>
<text x="79" y="618" fill="#C8C2B3" font-weight="400">u</text>
<text x="88" y="618" fill="#C8C2B3" font-weight="400">s</text>
<text x="106" y="618" fill="#C8C2B3" font-weight="400">·</text>
<text x="124" y="618" fill="#C8C2B3" font-weight="400">s</text>
<text x="133" y="618" fill="#C8C2B3" font-weight="400">h</text>
<text x="142" y="618" fill="#C8C2B3" font-weight="400">i</text>
<text x="151" y="618" fill="#C8C2B3" font-weight="400">f</text>
<text x="160" y="618" fill="#C8C2B3" font-weight="400">t</text>
<text x="169" y="618" fill="#C8C2B3" font-weight="400">+</text>
<text x="178" y="618" fill="#C8C2B3" font-weight="400">t</text>
<text x="187" y="618" fill="#C8C2B3" font-weight="400">a</text>
<text x="196" y="618" fill="#C8C2B3" font-weight="400">b</text>
<text x="214" y="618" fill="#C8C2B3" font-weight="400">a</text>
<text x="223" y="618" fill="#C8C2B3" font-weight="400">u</text>
<text x="232" y="618" fill="#C8C2B3" font-weight="400">t</text>
<text x="241" y="618" fill="#C8C2B3" font-weight="400">o</text>
<text x="250" y="618" fill="#C8C2B3" font-weight="400">n</text>
<text x="259" y="618" fill="#C8C2B3" font-weight="400">o</text>
<text x="268" y="618" fill="#C8C2B3" font-weight="400">m</text>
<text x="277" y="618" fill="#C8C2B3" font-weight="400">y</text>
<text x="295" y="618" fill="#C8C2B3" font-weight="400">·</text>
<text x="313" y="618" fill="#C8C2B3" font-weight="400">c</text>
<text x="322" y="618" fill="#C8C2B3" font-weight="400">t</text>
<text x="331" y="618" fill="#C8C2B3" font-weight="400">r</text>
<text x="340" y="618" fill="#C8C2B3" font-weight="400">l</text>
<text x="349" y="618" fill="#C8C2B3" font-weight="400">+</text>
<text x="358" y="618" fill="#C8C2B3" font-weight="400">t</text>
<text x="376" y="618" fill="#C8C2B3" font-weight="400">t</text>
<text x="385" y="618" fill="#C8C2B3" font-weight="400">a</text>
<text x="394" y="618" fill="#C8C2B3" font-weight="400">s</text>
<text x="403" y="618" fill="#C8C2B3" font-weight="400">k</text>
<text x="412" y="618" fill="#C8C2B3" font-weight="400">s</text>
<text x="430" y="618" fill="#C8C2B3" font-weight="400">·</text>
<text x="448" y="618" fill="#C8C2B3" font-weight="400">a</text>
<text x="457" y="618" fill="#C8C2B3" font-weight="400">l</text>
<text x="466" y="618" fill="#C8C2B3" font-weight="400">t</text>
<text x="475" y="618" fill="#C8C2B3" font-weight="400">+</text>
<text x="484" y="618" fill="#C8C2B3" font-weight="400">m</text>
<text x="502" y="618" fill="#C8C2B3" font-weight="400">c</text>
<text x="511" y="618" fill="#C8C2B3" font-weight="400">o</text>
<text x="520" y="618" fill="#C8C2B3" font-weight="400">n</text>
<text x="529" y="618" fill="#C8C2B3" font-weight="400">t</text>
<text x="538" y="618" fill="#C8C2B3" font-weight="400">e</text>
<text x="547" y="618" fill="#C8C2B3" font-weight="400">x</text>
<text x="556" y="618" fill="#C8C2B3" font-weight="400">t</text>
<text x="574" y="618" fill="#C8C2B3" font-weight="400">·</text>
<text x="592" y="618" fill="#C8C2B3" font-weight="400">/</text>
<text x="610" y="618" fill="#C8C2B3" font-weight="400">c</text>
<text x="619" y="618" fill="#C8C2B3" font-weight="400">o</text>
<text x="628" y="618" fill="#C8C2B3" font-weight="400">m</text>
<text x="637" y="618" fill="#C8C2B3" font-weight="400">m</text>
<text x="646" y="618" fill="#C8C2B3" font-weight="400">a</text>
<text x="655" y="618" fill="#C8C2B3" font-weight="400">n</text>
<text x="664" y="618" fill="#C8C2B3" font-weight="400">d</text>
<text x="673" y="618" fill="#C8C2B3" font-weight="400">s</text>
<text x="700" y="618" fill="#C8C2B3" font-weight="400">|</text>
<text x="727" y="618" fill="#E9E6DC" font-weight="400">p</text>
<text x="736" y="618" fill="#E9E6DC" font-weight="400">l</text>
<text x="745" y="618" fill="#E9E6DC" font-weight="400">a</text>
<text x="754" y="618" fill="#E9E6DC" font-weight="400">n</text>
<text x="781" y="618" fill="#707478" font-weight="400">·</text>
<text x="808" y="618" fill="#707478" font-weight="400">r</text>
<text x="817" y="618" fill="#707478" font-weight="400">o</text>
<text x="826" y="618" fill="#707478" font-weight="400">u</text>
<text x="835" y="618" fill="#707478" font-weight="400">t</text>
<text x="844" y="618" fill="#707478" font-weight="400">i</text>
<text x="853" y="618" fill="#707478" font-weight="400">n</text>
<text x="862" y="618" fill="#707478" font-weight="400">g</text>
<text x="880" y="618" fill="#707478" font-weight="400">a</text>
<text x="889" y="618" fill="#707478" font-weight="400">u</text>
<text x="898" y="618" fill="#707478" font-weight="400">t</text>
<text x="907" y="618" fill="#707478" font-weight="400">o</text>
</g>
</svg>
