<svg xmlns="http://www.w3.org/2000/svg" width="1202" height="644" viewBox="0 0 1202 644">
<rect width="100%" height="100%" fill="#16130F"/>
<g font-family="SFMono-Regular, Menlo, Consolas, monospace" font-size="14" xml:space="preserve">
<text x="16" y="24" fill="#6F6A5E" font-weight="400">─</text>
<text x="25" y="24" fill="#6F6A5E" font-weight="400">─</text>
<text x="43" y="24" fill="#948E81" font-weight="400">s</text>
<text x="52" y="24" fill="#948E81" font-weight="400">p</text>
<text x="61" y="24" fill="#948E81" font-weight="400">e</text>
<text x="70" y="24" fill="#948E81" font-weight="400">n</text>
<text x="79" y="24" fill="#948E81" font-weight="400">d</text>
<text x="97" y="24" fill="#6F6A5E" font-weight="400">·</text>
<text x="115" y="24" fill="#7FB3C8" font-weight="400">c</text>
<text x="124" y="24" fill="#7FB3C8" font-weight="400">t</text>
<text x="133" y="24" fill="#7FB3C8" font-weight="400">r</text>
<text x="142" y="24" fill="#7FB3C8" font-weight="400">l</text>
<text x="151" y="24" fill="#7FB3C8" font-weight="400">+</text>
<text x="160" y="24" fill="#7FB3C8" font-weight="400">s</text>
<text x="178" y="24" fill="#6F6A5E" font-weight="400">─</text>
<text x="187" y="24" fill="#6F6A5E" font-weight="400">─</text>
<text x="196" y="24" fill="#6F6A5E" font-weight="400">─</text>
<text x="205" y="24" fill="#6F6A5E" font-weight="400">─</text>
<text x="214" y="24" fill="#6F6A5E" font-weight="400">─</text>
<text x="223" y="24" fill="#6F6A5E" font-weight="400">─</text>
<text x="232" y="24" fill="#6F6A5E" font-weight="400">─</text>
<text x="241" y="24" fill="#6F6A5E" font-weight="400">─</text>
<text x="250" y="24" fill="#6F6A5E" font-weight="400">─</text>
<text x="259" y="24" fill="#6F6A5E" font-weight="400">─</text>
<text x="268" y="24" fill="#6F6A5E" font-weight="400">─</text>
<text x="277" y="24" fill="#6F6A5E" font-weight="400">─</text>
<text x="286" y="24" fill="#6F6A5E" font-weight="400">─</text>
<text x="295" y="24" fill="#6F6A5E" font-weight="400">─</text>
<text x="304" y="24" fill="#6F6A5E" font-weight="400">─</text>
<text x="313" y="24" fill="#6F6A5E" font-weight="400">─</text>
<text x="322" y="24" fill="#6F6A5E" font-weight="400">─</text>
<text x="331" y="24" fill="#6F6A5E" font-weight="400">─</text>
<text x="340" y="24" fill="#6F6A5E" font-weight="400">─</text>
<text x="349" y="24" fill="#6F6A5E" font-weight="400">─</text>
<text x="358" y="24" fill="#6F6A5E" font-weight="400">─</text>
<text x="367" y="24" fill="#6F6A5E" font-weight="400">─</text>
<text x="376" y="24" fill="#6F6A5E" font-weight="400">─</text>
<text x="385" y="24" fill="#6F6A5E" font-weight="400">─</text>
<text x="394" y="24" fill="#6F6A5E" font-weight="400">─</text>
<text x="403" y="24" fill="#6F6A5E" font-weight="400">─</text>
<text x="412" y="24" fill="#6F6A5E" font-weight="400">─</text>
<text x="421" y="24" fill="#6F6A5E" font-weight="400">─</text>
<text x="430" y="24" fill="#6F6A5E" font-weight="400">─</text>
<text x="439" y="24" fill="#6F6A5E" font-weight="400">─</text>
<text x="448" y="24" fill="#6F6A5E" font-weight="400">─</text>
<text x="457" y="24" fill="#6F6A5E" font-weight="400">─</text>
<text x="466" y="24" fill="#6F6A5E" font-weight="400">─</text>
<text x="475" y="24" fill="#6F6A5E" font-weight="400">─</text>
<text x="484" y="24" fill="#6F6A5E" font-weight="400">─</text>
<text x="493" y="24" fill="#6F6A5E" font-weight="400">─</text>
<text x="502" y="24" fill="#6F6A5E" font-weight="400">─</text>
<text x="511" y="24" fill="#6F6A5E" font-weight="400">─</text>
<text x="520" y="24" fill="#6F6A5E" font-weight="400">─</text>
<text x="529" y="24" fill="#6F6A5E" font-weight="400">─</text>
<text x="538" y="24" fill="#6F6A5E" font-weight="400">─</text>
<text x="547" y="24" fill="#6F6A5E" font-weight="400">─</text>
<text x="556" y="24" fill="#6F6A5E" font-weight="400">─</text>
<text x="565" y="24" fill="#6F6A5E" font-weight="400">─</text>
<text x="574" y="24" fill="#6F6A5E" font-weight="400">─</text>
<text x="583" y="24" fill="#6F6A5E" font-weight="400">─</text>
<text x="592" y="24" fill="#6F6A5E" font-weight="400">─</text>
<text x="601" y="24" fill="#6F6A5E" font-weight="400">─</text>
<text x="610" y="24" fill="#6F6A5E" font-weight="400">─</text>
<text x="619" y="24" fill="#6F6A5E" font-weight="400">─</text>
<text x="628" y="24" fill="#6F6A5E" font-weight="400">─</text>
<text x="637" y="24" fill="#6F6A5E" font-weight="400">─</text>
<text x="646" y="24" fill="#6F6A5E" font-weight="400">─</text>
<text x="655" y="24" fill="#6F6A5E" font-weight="400">─</text>
<text x="664" y="24" fill="#6F6A5E" font-weight="400">─</text>
<text x="673" y="24" fill="#6F6A5E" font-weight="400">─</text>
<text x="682" y="24" fill="#6F6A5E" font-weight="400">─</text>
<text x="691" y="24" fill="#6F6A5E" font-weight="400">─</text>
<text x="700" y="24" fill="#6F6A5E" font-weight="400">─</text>
<text x="709" y="24" fill="#6F6A5E" font-weight="400">─</text>
<text x="718" y="24" fill="#6F6A5E" font-weight="400">─</text>
<text x="727" y="24" fill="#6F6A5E" font-weight="400">─</text>
<text x="736" y="24" fill="#6F6A5E" font-weight="400">─</text>
<text x="745" y="24" fill="#6F6A5E" font-weight="400">─</text>
<text x="754" y="24" fill="#6F6A5E" font-weight="400">─</text>
<text x="763" y="24" fill="#6F6A5E" font-weight="400">─</text>
<text x="772" y="24" fill="#6F6A5E" font-weight="400">─</text>
<text x="781" y="24" fill="#6F6A5E" font-weight="400">─</text>
<text x="790" y="24" fill="#6F6A5E" font-weight="400">─</text>
<text x="799" y="24" fill="#6F6A5E" font-weight="400">─</text>
<text x="808" y="24" fill="#6F6A5E" font-weight="400">─</text>
<text x="817" y="24" fill="#6F6A5E" font-weight="400">─</text>
<text x="826" y="24" fill="#6F6A5E" font-weight="400">─</text>
<text x="835" y="24" fill="#6F6A5E" font-weight="400">─</text>
<text x="844" y="24" fill="#6F6A5E" font-weight="400">─</text>
<text x="853" y="24" fill="#6F6A5E" font-weight="400">─</text>
<text x="862" y="24" fill="#6F6A5E" font-weight="400">─</text>
<text x="871" y="24" fill="#6F6A5E" font-weight="400">─</text>
<text x="880" y="24" fill="#6F6A5E" font-weight="400">─</text>
<text x="889" y="24" fill="#6F6A5E" font-weight="400">─</text>
<text x="898" y="24" fill="#6F6A5E" font-weight="400">─</text>
<text x="907" y="24" fill="#6F6A5E" font-weight="400">─</text>
<text x="916" y="24" fill="#6F6A5E" font-weight="400">─</text>
<text x="925" y="24" fill="#6F6A5E" font-weight="400">─</text>
<text x="934" y="24" fill="#6F6A5E" font-weight="400">─</text>
<text x="943" y="24" fill="#6F6A5E" font-weight="400">─</text>
<text x="952" y="24" fill="#6F6A5E" font-weight="400">─</text>
<text x="961" y="24" fill="#6F6A5E" font-weight="400">─</text>
<text x="970" y="24" fill="#6F6A5E" font-weight="400">─</text>
<text x="979" y="24" fill="#6F6A5E" font-weight="400">─</text>
<text x="988" y="24" fill="#6F6A5E" font-weight="400">─</text>
<text x="997" y="24" fill="#6F6A5E" font-weight="400">─</text>
<text x="1006" y="24" fill="#6F6A5E" font-weight="400">─</text>
<text x="1015" y="24" fill="#6F6A5E" font-weight="400">─</text>
<text x="1024" y="24" fill="#6F6A5E" font-weight="400">─</text>
<text x="1033" y="24" fill="#6F6A5E" font-weight="400">─</text>
<text x="1042" y="24" fill="#6F6A5E" font-weight="400">─</text>
<text x="1051" y="24" fill="#6F6A5E" font-weight="400">─</text>
<text x="1060" y="24" fill="#6F6A5E" font-weight="400">─</text>
<text x="1069" y="24" fill="#6F6A5E" font-weight="400">─</text>
<text x="34" y="60" fill="#948E81" font-weight="400">t</text>
<text x="43" y="60" fill="#948E81" font-weight="400">h</text>
<text x="52" y="60" fill="#948E81" font-weight="400">i</text>
<text x="61" y="60" fill="#948E81" font-weight="400">s</text>
<text x="79" y="60" fill="#948E81" font-weight="400">s</text>
<text x="88" y="60" fill="#948E81" font-weight="400">e</text>
<text x="97" y="60" fill="#948E81" font-weight="400">s</text>
<text x="106" y="60" fill="#948E81" font-weight="400">s</text>
<text x="115" y="60" fill="#948E81" font-weight="400">i</text>
<text x="124" y="60" fill="#948E81" font-weight="400">o</text>
<text x="133" y="60" fill="#948E81" font-weight="400">n</text>
<text x="151" y="60" fill="#948E81" font-weight="400">y</text>
<text x="160" y="60" fill="#948E81" font-weight="400">o</text>
<text x="169" y="60" fill="#948E81" font-weight="400">u</text>
<text x="187" y="60" fill="#948E81" font-weight="400">s</text>
<text x="196" y="60" fill="#948E81" font-weight="400">p</text>
<text x="205" y="60" fill="#948E81" font-weight="400">e</text>
<text x="214" y="60" fill="#948E81" font-weight="400">n</text>
<text x="223" y="60" fill="#948E81" font-weight="400">t</text>
<text x="241" y="60" fill="#E9E6DC" font-weight="700">$</text>
<text x="250" y="60" fill="#E9E6DC" font-weight="700">5</text>
<text x="259" y="60" fill="#E9E6DC" font-weight="700">.</text>
<text x="268" y="60" fill="#E9E6DC" font-weight="700">4</text>
<text x="277" y="60" fill="#E9E6DC" font-weight="700">6</text>
<text x="304" y="60" fill="#6F6A5E" font-weight="400">·</text>
<text x="331" y="60" fill="#6F6A5E" font-weight="400">a</text>
<text x="340" y="60" fill="#6F6A5E" font-weight="400">c</text>
<text x="349" y="60" fill="#6F6A5E" font-weight="400">r</text>
<text x="358" y="60" fill="#6F6A5E" font-weight="400">o</text>
<text x="367" y="60" fill="#6F6A5E" font-weight="400">s</text>
<text x="376" y="60" fill="#6F6A5E" font-weight="400">s</text>
<text x="394" y="60" fill="#6F6A5E" font-weight="400">3</text>
<text x="412" y="60" fill="#6F6A5E" font-weight="400">m</text>
<text x="421" y="60" fill="#6F6A5E" font-weight="400">o</text>
<text x="430" y="60" fill="#6F6A5E" font-weight="400">d</text>
<text x="439" y="60" fill="#6F6A5E" font-weight="400">e</text>
<text x="448" y="60" fill="#6F6A5E" font-weight="400">l</text>
<text x="457" y="60" fill="#6F6A5E" font-weight="400">s</text>
<text x="466" y="60" fill="#6F6A5E" font-weight="400">,</text>
<text x="484" y="60" fill="#6F6A5E" font-weight="400">4</text>
<text x="493" y="60" fill="#6F6A5E" font-weight="400">1</text>
<text x="511" y="60" fill="#6F6A5E" font-weight="400">t</text>
<text x="520" y="60" fill="#6F6A5E" font-weight="400">u</text>
<text x="529" y="60" fill="#6F6A5E" font-weight="400">r</text>
<text x="538" y="60" fill="#6F6A5E" font-weight="400">n</text>
<text x="547" y="60" fill="#6F6A5E" font-weight="400">s</text>
<text x="34" y="96" fill="#6F6A5E" font-weight="400">m</text>
<text x="43" y="96" fill="#6F6A5E" font-weight="400">o</text>
<text x="52" y="96" fill="#6F6A5E" font-weight="400">d</text>
<text x="61" y="96" fill="#6F6A5E" font-weight="400">e</text>
<text x="70" y="96" fill="#6F6A5E" font-weight="400">l</text>
<text x="304" y="96" fill="#6F6A5E" font-weight="400">s</text>
<text x="313" y="96" fill="#6F6A5E" font-weight="400">p</text>
<text x="322" y="96" fill="#6F6A5E" font-weight="400">e</text>
<text x="331" y="96" fill="#6F6A5E" font-weight="400">n</text>
<text x="340" y="96" fill="#6F6A5E" font-weight="400">d</text>
<text x="385" y="96" fill="#6F6A5E" font-weight="400">s</text>
<text x="394" y="96" fill="#6F6A5E" font-weight="400">h</text>
<text x="403" y="96" fill="#6F6A5E" font-weight="400">a</text>
<text x="412" y="96" fill="#6F6A5E" font-weight="400">r</text>
<text x="421" y="96" fill="#6F6A5E" font-weight="400">e</text>
<rect x="16" y="100" width="702" height="18" fill="#241F19"/>
<text x="34" y="114" fill="#E9E6DC" font-weight="400">c</text>
<text x="43" y="114" fill="#E9E6DC" font-weight="400">l</text>
<text x="52" y="114" fill="#E9E6DC" font-weight="400">a</text>
<text x="61" y="114" fill="#E9E6DC" font-weight="400">u</text>
<text x="70" y="114" fill="#E9E6DC" font-weight="400">d</text>
<text x="79" y="114" fill="#E9E6DC" font-weight="400">e</text>
<text x="88" y="114" fill="#E9E6DC" font-weight="400">-</text>
<text x="97" y="114" fill="#E9E6DC" font-weight="400">o</text>
<text x="106" y="114" fill="#E9E6DC" font-weight="400">p</text>
<text x="115" y="114" fill="#E9E6DC" font-weight="400">u</text>
<text x="124" y="114" fill="#E9E6DC" font-weight="400">s</text>
<text x="133" y="114" fill="#E9E6DC" font-weight="400">-</text>
<text x="142" y="114" fill="#E9E6DC" font-weight="400">4</text>
<text x="151" y="114" fill="#E9E6DC" font-weight="400">-</text>
<text x="160" y="114" fill="#E9E6DC" font-weight="400">8</text>
<text x="304" y="114" fill="#948E81" font-weight="400">$</text>
<text x="313" y="114" fill="#948E81" font-weight="400">3</text>
<text x="322" y="114" fill="#948E81" font-weight="400">.</text>
<text x="331" y="114" fill="#948E81" font-weight="400">6</text>
<text x="340" y="114" fill="#948E81" font-weight="400">7</text>
<text x="403" y="114" fill="#6F6A5E" font-weight="400">6</text>
<text x="412" y="114" fill="#6F6A5E" font-weight="400">7</text>
<text x="421" y="114" fill="#6F6A5E" font-weight="400">%</text>
<text x="448" y="114" fill="#5F9E6E" font-weight="400">y</text>
<text x="457" y="114" fill="#5F9E6E" font-weight="400">o</text>
<text x="466" y="114" fill="#5F9E6E" font-weight="400">u</text>
<text x="475" y="114" fill="#5F9E6E" font-weight="400">r</text>
<text x="493" y="114" fill="#5F9E6E" font-weight="400">p</text>
<text x="502" y="114" fill="#5F9E6E" font-weight="400">i</text>
<text x="511" y="114" fill="#5F9E6E" font-weight="400">n</text>
<text x="34" y="132" fill="#948E81" font-weight="400">g</text>
<text x="43" y="132" fill="#948E81" font-weight="400">p</text>
<text x="52" y="132" fill="#948E81" font-weight="400">t</text>
<text x="61" y="132" fill="#948E81" font-weight="400">-</text>
<text x="70" y="132" fill="#948E81" font-weight="400">5</text>
<text x="79" y="132" fill="#948E81" font-weight="400">.</text>
<text x="88" y="132" fill="#948E81" font-weight="400">6</text>
<text x="97" y="132" fill="#948E81" font-weight="400">-</text>
<text x="106" y="132" fill="#948E81" font-weight="400">l</text>
<text x="115" y="132" fill="#948E81" font-weight="400">u</text>
<text x="124" y="132" fill="#948E81" font-weight="400">n</text>
<text x="133" y="132" fill="#948E81" font-weight="400">a</text>
<text x="142" y="132" fill="#948E81" font-weight="400">-</text>
<text x="151" y="132" fill="#948E81" font-weight="400">p</text>
<text x="160" y="132" fill="#948E81" font-weight="400">r</text>
<text x="169" y="132" fill="#948E81" font-weight="400">o</text>
<text x="304" y="132" fill="#948E81" font-weight="400">$</text>
<text x="313" y="132" fill="#948E81" font-weight="400">1</text>
<text x="322" y="132" fill="#948E81" font-weight="400">.</text>
<text x="331" y="132" fill="#948E81" font-weight="400">2</text>
<text x="340" y="132" fill="#948E81" font-weight="400">6</text>
<text x="403" y="132" fill="#6F6A5E" font-weight="400">2</text>
<text x="412" y="132" fill="#6F6A5E" font-weight="400">3</text>
<text x="421" y="132" fill="#6F6A5E" font-weight="400">%</text>
<text x="34" y="150" fill="#948E81" font-weight="400">d</text>
<text x="43" y="150" fill="#948E81" font-weight="400">e</text>
<text x="52" y="150" fill="#948E81" font-weight="400">e</text>
<text x="61" y="150" fill="#948E81" font-weight="400">p</text>
<text x="70" y="150" fill="#948E81" font-weight="400">s</text>
<text x="79" y="150" fill="#948E81" font-weight="400">e</text>
<text x="88" y="150" fill="#948E81" font-weight="400">e</text>
<text x="97" y="150" fill="#948E81" font-weight="400">k</text>
<text x="106" y="150" fill="#948E81" font-weight="400">-</text>
<text x="115" y="150" fill="#948E81" font-weight="400">v</text>
<text x="124" y="150" fill="#948E81" font-weight="400">4</text>
<text x="133" y="150" fill="#948E81" font-weight="400">-</text>
<text x="142" y="150" fill="#948E81" font-weight="400">p</text>
<text x="151" y="150" fill="#948E81" font-weight="400">r</text>
<text x="160" y="150" fill="#948E81" font-weight="400">o</text>
<text x="304" y="150" fill="#948E81" font-weight="400">$</text>
<text x="313" y="150" fill="#948E81" font-weight="400">0</text>
<text x="322" y="150" fill="#948E81" font-weight="400">.</text>
<text x="331" y="150" fill="#948E81" font-weight="400">5</text>
<text x="340" y="150" fill="#948E81" font-weight="400">3</text>
<text x="403" y="150" fill="#6F6A5E" font-weight="400">1</text>
<text x="412" y="150" fill="#6F6A5E" font-weight="400">0</text>
<text x="421" y="150" fill="#6F6A5E" font-weight="400">%</text>
<text x="448" y="150" fill="#6F6A5E" font-weight="400">c</text>
<text x="457" y="150" fill="#6F6A5E" font-weight="400">h</text>
<text x="466" y="150" fill="#6F6A5E" font-weight="400">e</text>
<text x="475" y="150" fill="#6F6A5E" font-weight="400">a</text>
<text x="484" y="150" fill="#6F6A5E" font-weight="400">p</text>
<text x="493" y="150" fill="#6F6A5E" font-weight="400">e</text>
<text x="502" y="150" fill="#6F6A5E" font-weight="400">s</text>
<text x="511" y="150" fill="#6F6A5E" font-weight="400">t</text>
<text x="529" y="150" fill="#6F6A5E" font-weight="400">l</text>
<text x="538" y="150" fill="#6F6A5E" font-weight="400">a</text>
<text x="547" y="150" fill="#6F6A5E" font-weight="400">n</text>
<text x="556" y="150" fill="#6F6A5E" font-weight="400">d</text>
<text x="565" y="150" fill="#6F6A5E" font-weight="400">e</text>
<text x="574" y="150" fill="#6F6A5E" font-weight="400">d</text>
<text x="34" y="168" fill="#948E81" font-weight="400">Q</text>
<text x="43" y="168" fill="#948E81" font-weight="400">w</text>
<text x="52" y="168" fill="#948E81" font-weight="400">e</text>
<text x="61" y="168" fill="#948E81" font-weight="400">n</text>
<text x="70" y="168" fill="#948E81" font-weight="400">3</text>
<text x="79" y="168" fill="#948E81" font-weight="400">-</text>
<text x="88" y="168" fill="#948E81" font-weight="400">C</text>
<text x="97" y="168" fill="#948E81" font-weight="400">o</text>
<text x="106" y="168" fill="#948E81" font-weight="400">d</text>
<text x="115" y="168" fill="#948E81" font-weight="400">e</text>
<text x="124" y="168" fill="#948E81" font-weight="400">r</text>
<text x="133" y="168" fill="#948E81" font-weight="400">-</text>
<text x="142" y="168" fill="#948E81" font-weight="400">8</text>
<text x="151" y="168" fill="#948E81" font-weight="400">0</text>
<text x="160" y="168" fill="#948E81" font-weight="400">B</text>
<text x="340" y="168" fill="#6F6A5E" font-weight="400">—</text>
<text x="412" y="168" fill="#6F6A5E" font-weight="400">0</text>
<text x="421" y="168" fill="#6F6A5E" font-weight="400">%</text>
<text x="448" y="168" fill="#6F6A5E" font-weight="400">l</text>
<text x="457" y="168" fill="#6F6A5E" font-weight="400">o</text>
<text x="466" y="168" fill="#6F6A5E" font-weight="400">c</text>
<text x="475" y="168" fill="#6F6A5E" font-weight="400">a</text>
<text x="484" y="168" fill="#6F6A5E" font-weight="400">l</text>
<text x="493" y="168" fill="#6F6A5E" font-weight="400">,</text>
<text x="511" y="168" fill="#6F6A5E" font-weight="400">n</text>
<text x="520" y="168" fill="#6F6A5E" font-weight="400">o</text>
<text x="538" y="168" fill="#6F6A5E" font-weight="400">b</text>
<text x="547" y="168" fill="#6F6A5E" font-weight="400">i</text>
<text x="556" y="168" fill="#6F6A5E" font-weight="400">l</text>
<text x="565" y="168" fill="#6F6A5E" font-weight="400">l</text>
<text x="34" y="186" fill="#6F6A5E" font-weight="400">─</text>
<text x="43" y="186" fill="#6F6A5E" font-weight="400">─</text>
<text x="52" y="186" fill="#6F6A5E" font-weight="400">─</text>
<text x="61" y="186" fill="#6F6A5E" font-weight="400">─</text>
<text x="70" y="186" fill="#6F6A5E" font-weight="400">─</text>
<text x="79" y="186" fill="#6F6A5E" font-weight="400">─</text>
<text x="88" y="186" fill="#6F6A5E" font-weight="400">─</text>
<text x="97" y="186" fill="#6F6A5E" font-weight="400">─</text>
<text x="106" y="186" fill="#6F6A5E" font-weight="400">─</text>
<text x="115" y="186" fill="#6F6A5E" font-weight="400">─</text>
<text x="124" y="186" fill="#6F6A5E" font-weight="400">─</text>
<text x="133" y="186" fill="#6F6A5E" font-weight="400">─</text>
<text x="142" y="186" fill="#6F6A5E" font-weight="400">─</text>
<text x="151" y="186" fill="#6F6A5E" font-weight="400">─</text>
<text x="160" y="186" fill="#6F6A5E" font-weight="400">─</text>
<text x="169" y="186" fill="#6F6A5E" font-weight="400">─</text>
<text x="178" y="186" fill="#6F6A5E" font-weight="400">─</text>
<text x="187" y="186" fill="#6F6A5E" font-weight="400">─</text>
<text x="196" y="186" fill="#6F6A5E" font-weight="400">─</text>
<text x="205" y="186" fill="#6F6A5E" font-weight="400">─</text>
<text x="214" y="186" fill="#6F6A5E" font-weight="400">─</text>
<text x="223" y="186" fill="#6F6A5E" font-weight="400">─</text>
<text x="232" y="186" fill="#6F6A5E" font-weight="400">─</text>
<text x="241" y="186" fill="#6F6A5E" font-weight="400">─</text>
<text x="250" y="186" fill="#6F6A5E" font-weight="400">─</text>
<text x="259" y="186" fill="#6F6A5E" font-weight="400">─</text>
<text x="268" y="186" fill="#6F6A5E" font-weight="400">─</text>
<text x="277" y="186" fill="#6F6A5E" font-weight="400">─</text>
<text x="286" y="186" fill="#6F6A5E" font-weight="400">─</text>
<text x="295" y="186" fill="#6F6A5E" font-weight="400">─</text>
<text x="304" y="186" fill="#6F6A5E" font-weight="400">─</text>
<text x="313" y="186" fill="#6F6A5E" font-weight="400">─</text>
<text x="322" y="186" fill="#6F6A5E" font-weight="400">─</text>
<text x="331" y="186" fill="#6F6A5E" font-weight="400">─</text>
<text x="340" y="186" fill="#6F6A5E" font-weight="400">─</text>
<text x="349" y="186" fill="#6F6A5E" font-weight="400">─</text>
<text x="358" y="186" fill="#6F6A5E" font-weight="400">─</text>
<text x="367" y="186" fill="#6F6A5E" font-weight="400">─</text>
<text x="376" y="186" fill="#6F6A5E" font-weight="400">─</text>
<text x="385" y="186" fill="#6F6A5E" font-weight="400">─</text>
<text x="394" y="186" fill="#6F6A5E" font-weight="400">─</text>
<text x="403" y="186" fill="#6F6A5E" font-weight="400">─</text>
<text x="412" y="186" fill="#6F6A5E" font-weight="400">─</text>
<text x="421" y="186" fill="#6F6A5E" font-weight="400">─</text>
<text x="430" y="186" fill="#6F6A5E" font-weight="400">─</text>
<text x="439" y="186" fill="#6F6A5E" font-weight="400">─</text>
<text x="448" y="186" fill="#6F6A5E" font-weight="400">─</text>
<text x="457" y="186" fill="#6F6A5E" font-weight="400">─</text>
<text x="466" y="186" fill="#6F6A5E" font-weight="400">─</text>
<text x="475" y="186" fill="#6F6A5E" font-weight="400">─</text>
<text x="484" y="186" fill="#6F6A5E" font-weight="400">─</text>
<text x="493" y="186" fill="#6F6A5E" font-weight="400">─</text>
<text x="502" y="186" fill="#6F6A5E" font-weight="400">─</text>
<text x="511" y="186" fill="#6F6A5E" font-weight="400">─</text>
<text x="520" y="186" fill="#6F6A5E" font-weight="400">─</text>
<text x="529" y="186" fill="#6F6A5E" font-weight="400">─</text>
<text x="538" y="186" fill="#6F6A5E" font-weight="400">─</text>
<text x="547" y="186" fill="#6F6A5E" font-weight="400">─</text>
<text x="556" y="186" fill="#6F6A5E" font-weight="400">─</text>
<text x="565" y="186" fill="#6F6A5E" font-weight="400">─</text>
<text x="574" y="186" fill="#6F6A5E" font-weight="400">─</text>
<text x="583" y="186" fill="#6F6A5E" font-weight="400">─</text>
<text x="592" y="186" fill="#6F6A5E" font-weight="400">─</text>
<text x="601" y="186" fill="#6F6A5E" font-weight="400">─</text>
<text x="610" y="186" fill="#6F6A5E" font-weight="400">─</text>
<text x="619" y="186" fill="#6F6A5E" font-weight="400">─</text>
<text x="628" y="186" fill="#6F6A5E" font-weight="400">─</text>
<text x="637" y="186" fill="#6F6A5E" font-weight="400">─</text>
<text x="646" y="186" fill="#6F6A5E" font-weight="400">─</text>
<text x="655" y="186" fill="#6F6A5E" font-weight="400">─</text>
<text x="34" y="204" fill="#948E81" font-weight="400">t</text>
<text x="43" y="204" fill="#948E81" font-weight="400">o</text>
<text x="52" y="204" fill="#948E81" font-weight="400">t</text>
<text x="61" y="204" fill="#948E81" font-weight="400">a</text>
<text x="70" y="204" fill="#948E81" font-weight="400">l</text>
<text x="304" y="204" fill="#E9E6DC" font-weight="400">$</text>
<text x="313" y="204" fill="#E9E6DC" font-weight="400">5</text>
<text x="322" y="204" fill="#E9E6DC" font-weight="400">.</text>
<text x="331" y="204" fill="#E9E6DC" font-weight="400">4</text>
<text x="340" y="204" fill="#E9E6DC" font-weight="400">6</text>
<text x="448" y="204" fill="#6F6A5E" font-weight="400">a</text>
<text x="457" y="204" fill="#6F6A5E" font-weight="400">l</text>
<text x="466" y="204" fill="#6F6A5E" font-weight="400">l</text>
<text x="484" y="204" fill="#6F6A5E" font-weight="400">o</text>
<text x="493" y="204" fill="#6F6A5E" font-weight="400">f</text>
<text x="511" y="204" fill="#6F6A5E" font-weight="400">i</text>
<text x="520" y="204" fill="#6F6A5E" font-weight="400">t</text>
<text x="538" y="204" fill="#6F6A5E" font-weight="400">t</text>
<text x="547" y="204" fill="#6F6A5E" font-weight="400">o</text>
<text x="565" y="204" fill="#6F6A5E" font-weight="400">v</text>
<text x="574" y="204" fill="#6F6A5E" font-weight="400">e</text>
<text x="583" y="204" fill="#6F6A5E" font-weight="400">n</text>
<text x="592" y="204" fill="#6F6A5E" font-weight="400">d</text>
<text x="601" y="204" fill="#6F6A5E" font-weight="400">o</text>
<text x="610" y="204" fill="#6F6A5E" font-weight="400">r</text>
<text x="619" y="204" fill="#6F6A5E" font-weight="400">s</text>
<text x="16" y="240" fill="#6F6A5E" font-weight="400">─</text>
<text x="25" y="240" fill="#6F6A5E" font-weight="400">─</text>
<text x="43" y="240" fill="#948E81" font-weight="400">t</text>
<text x="52" y="240" fill="#948E81" font-weight="400">h</text>
<text x="61" y="240" fill="#948E81" font-weight="400">i</text>
<text x="70" y="240" fill="#948E81" font-weight="400">s</text>
<text x="88" y="240" fill="#948E81" font-weight="400">t</text>
<text x="97" y="240" fill="#948E81" font-weight="400">u</text>
<text x="106" y="240" fill="#948E81" font-weight="400">r</text>
<text x="115" y="240" fill="#948E81" font-weight="400">n</text>
<text x="133" y="240" fill="#6F6A5E" font-weight="400">─</text>
<text x="142" y="240" fill="#6F6A5E" font-weight="400">─</text>
<text x="151" y="240" fill="#6F6A5E" font-weight="400">─</text>
<text x="160" y="240" fill="#6F6A5E" font-weight="400">─</text>
<text x="169" y="240" fill="#6F6A5E" font-weight="400">─</text>
<text x="178" y="240" fill="#6F6A5E" font-weight="400">─</text>
<text x="187" y="240" fill="#6F6A5E" font-weight="400">─</text>
<text x="196" y="240" fill="#6F6A5E" font-weight="400">─</text>
<text x="205" y="240" fill="#6F6A5E" font-weight="400">─</text>
<text x="214" y="240" fill="#6F6A5E" font-weight="400">─</text>
<text x="223" y="240" fill="#6F6A5E" font-weight="400">─</text>
<text x="232" y="240" fill="#6F6A5E" font-weight="400">─</text>
<text x="241" y="240" fill="#6F6A5E" font-weight="400">─</text>
<text x="250" y="240" fill="#6F6A5E" font-weight="400">─</text>
<text x="259" y="240" fill="#6F6A5E" font-weight="400">─</text>
<text x="268" y="240" fill="#6F6A5E" font-weight="400">─</text>
<text x="277" y="240" fill="#6F6A5E" font-weight="400">─</text>
<text x="286" y="240" fill="#6F6A5E" font-weight="400">─</text>
<text x="295" y="240" fill="#6F6A5E" font-weight="400">─</text>
<text x="304" y="240" fill="#6F6A5E" font-weight="400">─</text>
<text x="313" y="240" fill="#6F6A5E" font-weight="400">─</text>
<text x="322" y="240" fill="#6F6A5E" font-weight="400">─</text>
<text x="331" y="240" fill="#6F6A5E" font-weight="400">─</text>
<text x="340" y="240" fill="#6F6A5E" font-weight="400">─</text>
<text x="349" y="240" fill="#6F6A5E" font-weight="400">─</text>
<text x="358" y="240" fill="#6F6A5E" font-weight="400">─</text>
<text x="367" y="240" fill="#6F6A5E" font-weight="400">─</text>
<text x="376" y="240" fill="#6F6A5E" font-weight="400">─</text>
<text x="385" y="240" fill="#6F6A5E" font-weight="400">─</text>
<text x="394" y="240" fill="#6F6A5E" font-weight="400">─</text>
<text x="403" y="240" fill="#6F6A5E" font-weight="400">─</text>
<text x="412" y="240" fill="#6F6A5E" font-weight="400">─</text>
<text x="421" y="240" fill="#6F6A5E" font-weight="400">─</text>
<text x="430" y="240" fill="#6F6A5E" font-weight="400">─</text>
<text x="439" y="240" fill="#6F6A5E" font-weight="400">─</text>
<text x="448" y="240" fill="#6F6A5E" font-weight="400">─</text>
<text x="457" y="240" fill="#6F6A5E" font-weight="400">─</text>
<text x="466" y="240" fill="#6F6A5E" font-weight="400">─</text>
<text x="475" y="240" fill="#6F6A5E" font-weight="400">─</text>
<text x="484" y="240" fill="#6F6A5E" font-weight="400">─</text>
<text x="493" y="240" fill="#6F6A5E" font-weight="400">─</text>
<text x="502" y="240" fill="#6F6A5E" font-weight="400">─</text>
<text x="511" y="240" fill="#6F6A5E" font-weight="400">─</text>
<text x="520" y="240" fill="#6F6A5E" font-weight="400">─</text>
<text x="529" y="240" fill="#6F6A5E" font-weight="400">─</text>
<text x="538" y="240" fill="#6F6A5E" font-weight="400">─</text>
<text x="547" y="240" fill="#6F6A5E" font-weight="400">─</text>
<text x="556" y="240" fill="#6F6A5E" font-weight="400">─</text>
<text x="565" y="240" fill="#6F6A5E" font-weight="400">─</text>
<text x="574" y="240" fill="#6F6A5E" font-weight="400">─</text>
<text x="583" y="240" fill="#6F6A5E" font-weight="400">─</text>
<text x="592" y="240" fill="#6F6A5E" font-weight="400">─</text>
<text x="601" y="240" fill="#6F6A5E" font-weight="400">─</text>
<text x="610" y="240" fill="#6F6A5E" font-weight="400">─</text>
<text x="619" y="240" fill="#6F6A5E" font-weight="400">─</text>
<text x="628" y="240" fill="#6F6A5E" font-weight="400">─</text>
<text x="637" y="240" fill="#6F6A5E" font-weight="400">─</text>
<text x="646" y="240" fill="#6F6A5E" font-weight="400">─</text>
<text x="655" y="240" fill="#6F6A5E" font-weight="400">─</text>
<text x="664" y="240" fill="#6F6A5E" font-weight="400">─</text>
<text x="673" y="240" fill="#6F6A5E" font-weight="400">─</text>
<text x="682" y="240" fill="#6F6A5E" font-weight="400">─</text>
<text x="691" y="240" fill="#6F6A5E" font-weight="400">─</text>
<text x="700" y="240" fill="#6F6A5E" font-weight="400">─</text>
<text x="709" y="240" fill="#6F6A5E" font-weight="400">─</text>
<text x="718" y="240" fill="#6F6A5E" font-weight="400">─</text>
<text x="727" y="240" fill="#6F6A5E" font-weight="400">─</text>
<text x="736" y="240" fill="#6F6A5E" font-weight="400">─</text>
<text x="745" y="240" fill="#6F6A5E" font-weight="400">─</text>
<text x="754" y="240" fill="#6F6A5E" font-weight="400">─</text>
<text x="763" y="240" fill="#6F6A5E" font-weight="400">─</text>
<text x="772" y="240" fill="#6F6A5E" font-weight="400">─</text>
<text x="781" y="240" fill="#6F6A5E" font-weight="400">─</text>
<text x="790" y="240" fill="#6F6A5E" font-weight="400">─</text>
<text x="799" y="240" fill="#6F6A5E" font-weight="400">─</text>
<text x="808" y="240" fill="#6F6A5E" font-weight="400">─</text>
<text x="817" y="240" fill="#6F6A5E" font-weight="400">─</text>
<text x="826" y="240" fill="#6F6A5E" font-weight="400">─</text>
<text x="835" y="240" fill="#6F6A5E" font-weight="400">─</text>
<text x="844" y="240" fill="#6F6A5E" font-weight="400">─</text>
<text x="853" y="240" fill="#6F6A5E" font-weight="400">─</text>
<text x="862" y="240" fill="#6F6A5E" font-weight="400">─</text>
<text x="871" y="240" fill="#6F6A5E" font-weight="400">─</text>
<text x="880" y="240" fill="#6F6A5E" font-weight="400">─</text>
<text x="889" y="240" fill="#6F6A5E" font-weight="400">─</text>
<text x="898" y="240" fill="#6F6A5E" font-weight="400">─</text>
<text x="907" y="240" fill="#6F6A5E" font-weight="400">─</text>
<text x="916" y="240" fill="#6F6A5E" font-weight="400">─</text>
<text x="925" y="240" fill="#6F6A5E" font-weight="400">─</text>
<text x="934" y="240" fill="#6F6A5E" font-weight="400">─</text>
<text x="943" y="240" fill="#6F6A5E" font-weight="400">─</text>
<text x="952" y="240" fill="#6F6A5E" font-weight="400">─</text>
<text x="961" y="240" fill="#6F6A5E" font-weight="400">─</text>
<text x="970" y="240" fill="#6F6A5E" font-weight="400">─</text>
<text x="979" y="240" fill="#6F6A5E" font-weight="400">─</text>
<text x="988" y="240" fill="#6F6A5E" font-weight="400">─</text>
<text x="997" y="240" fill="#6F6A5E" font-weight="400">─</text>
<text x="1006" y="240" fill="#6F6A5E" font-weight="400">─</text>
<text x="1015" y="240" fill="#6F6A5E" font-weight="400">─</text>
<text x="1024" y="240" fill="#6F6A5E" font-weight="400">─</text>
<text x="1033" y="240" fill="#6F6A5E" font-weight="400">─</text>
<text x="1042" y="240" fill="#6F6A5E" font-weight="400">─</text>
<text x="1051" y="240" fill="#6F6A5E" font-weight="400">─</text>
<text x="1060" y="240" fill="#6F6A5E" font-weight="400">─</text>
<text x="1069" y="240" fill="#6F6A5E" font-weight="400">─</text>
<text x="214" y="258" fill="#6F6A5E" font-weight="400">t</text>
<text x="223" y="258" fill="#6F6A5E" font-weight="400">o</text>
<text x="232" y="258" fill="#6F6A5E" font-weight="400">k</text>
<text x="241" y="258" fill="#6F6A5E" font-weight="400">e</text>
<text x="250" y="258" fill="#6F6A5E" font-weight="400">n</text>
<text x="259" y="258" fill="#6F6A5E" font-weight="400">s</text>
<text x="331" y="258" fill="#6F6A5E" font-weight="400">c</text>
<text x="340" y="258" fill="#6F6A5E" font-weight="400">o</text>
<text x="349" y="258" fill="#6F6A5E" font-weight="400">s</text>
<text x="358" y="258" fill="#6F6A5E" font-weight="400">t</text>
<text x="34" y="276" fill="#6F6A5E" font-weight="400">i</text>
<text x="43" y="276" fill="#6F6A5E" font-weight="400">n</text>
<text x="52" y="276" fill="#6F6A5E" font-weight="400">p</text>
<text x="61" y="276" fill="#6F6A5E" font-weight="400">u</text>
<text x="70" y="276" fill="#6F6A5E" font-weight="400">t</text>
<text x="214" y="276" fill="#948E81" font-weight="400">1</text>
<text x="223" y="276" fill="#948E81" font-weight="400">2</text>
<text x="232" y="276" fill="#948E81" font-weight="400">,</text>
<text x="241" y="276" fill="#948E81" font-weight="400">4</text>
<text x="250" y="276" fill="#948E81" font-weight="400">3</text>
<text x="259" y="276" fill="#948E81" font-weight="400">1</text>
<text x="313" y="276" fill="#948E81" font-weight="400">$</text>
<text x="322" y="276" fill="#948E81" font-weight="400">0</text>
<text x="331" y="276" fill="#948E81" font-weight="400">.</text>
<text x="340" y="276" fill="#948E81" font-weight="400">0</text>
<text x="349" y="276" fill="#948E81" font-weight="400">1</text>
<text x="358" y="276" fill="#948E81" font-weight="400">9</text>
<text x="34" y="294" fill="#6F6A5E" font-weight="400">o</text>
<text x="43" y="294" fill="#6F6A5E" font-weight="400">u</text>
<text x="52" y="294" fill="#6F6A5E" font-weight="400">t</text>
<text x="61" y="294" fill="#6F6A5E" font-weight="400">p</text>
<text x="70" y="294" fill="#6F6A5E" font-weight="400">u</text>
<text x="79" y="294" fill="#6F6A5E" font-weight="400">t</text>
<text x="223" y="294" fill="#948E81" font-weight="400">3</text>
<text x="232" y="294" fill="#948E81" font-weight="400">,</text>
<text x="241" y="294" fill="#948E81" font-weight="400">1</text>
<text x="250" y="294" fill="#948E81" font-weight="400">0</text>
<text x="259" y="294" fill="#948E81" font-weight="400">4</text>
<text x="313" y="294" fill="#948E81" font-weight="400">$</text>
<text x="322" y="294" fill="#948E81" font-weight="400">0</text>
<text x="331" y="294" fill="#948E81" font-weight="400">.</text>
<text x="340" y="294" fill="#948E81" font-weight="400">0</text>
<text x="349" y="294" fill="#948E81" font-weight="400">8</text>
<text x="358" y="294" fill="#948E81" font-weight="400">5</text>
<text x="34" y="312" fill="#6F6A5E" font-weight="400">c</text>
<text x="43" y="312" fill="#6F6A5E" font-weight="400">a</text>
<text x="52" y="312" fill="#6F6A5E" font-weight="400">c</text>
<text x="61" y="312" fill="#6F6A5E" font-weight="400">h</text>
<text x="70" y="312" fill="#6F6A5E" font-weight="400">e</text>
<text x="79" y="312" fill="#6F6A5E" font-weight="400">d</text>
<text x="214" y="312" fill="#948E81" font-weight="400">8</text>
<text x="223" y="312" fill="#948E81" font-weight="400">0</text>
<text x="232" y="312" fill="#948E81" font-weight="400">,</text>
<text x="241" y="312" fill="#948E81" font-weight="400">2</text>
<text x="250" y="312" fill="#948E81" font-weight="400">2</text>
<text x="259" y="312" fill="#948E81" font-weight="400">0</text>
<text x="313" y="312" fill="#948E81" font-weight="400">$</text>
<text x="322" y="312" fill="#948E81" font-weight="400">0</text>
<text x="331" y="312" fill="#948E81" font-weight="400">.</text>
<text x="340" y="312" fill="#948E81" font-weight="400">0</text>
<text x="349" y="312" fill="#948E81" font-weight="400">0</text>
<text x="358" y="312" fill="#948E81" font-weight="400">0</text>
<text x="385" y="312" fill="#5F9E6E" font-weight="400">a</text>
<text x="394" y="312" fill="#5F9E6E" font-weight="400">l</text>
<text x="403" y="312" fill="#5F9E6E" font-weight="400">r</text>
<text x="412" y="312" fill="#5F9E6E" font-weight="400">e</text>
<text x="421" y="312" fill="#5F9E6E" font-weight="400">a</text>
<text x="430" y="312" fill="#5F9E6E" font-weight="400">d</text>
<text x="439" y="312" fill="#5F9E6E" font-weight="400">y</text>
<text x="457" y="312" fill="#5F9E6E" font-weight="400">w</text>
<text x="466" y="312" fill="#5F9E6E" font-weight="400">a</text>
<text x="475" y="312" fill="#5F9E6E" font-weight="400">r</text>
<text x="484" y="312" fill="#5F9E6E" font-weight="400">m</text>
<text x="34" y="330" fill="#948E81" font-weight="400">t</text>
<text x="43" y="330" fill="#948E81" font-weight="400">h</text>
<text x="52" y="330" fill="#948E81" font-weight="400">i</text>
<text x="61" y="330" fill="#948E81" font-weight="400">s</text>
<text x="79" y="330" fill="#948E81" font-weight="400">t</text>
<text x="88" y="330" fill="#948E81" font-weight="400">u</text>
<text x="97" y="330" fill="#948E81" font-weight="400">r</text>
<text x="106" y="330" fill="#948E81" font-weight="400">n</text>
<text x="313" y="330" fill="#E9E6DC" font-weight="400">$</text>
<text x="322" y="330" fill="#E9E6DC" font-weight="400">0</text>
<text x="331" y="330" fill="#E9E6DC" font-weight="400">.</text>
<text x="340" y="330" fill="#E9E6DC" font-weight="400">1</text>
<text x="349" y="330" fill="#E9E6DC" font-weight="400">0</text>
<text x="358" y="330" fill="#E9E6DC" font-weight="400">4</text>
<text x="34" y="348" fill="#6F6A5E" font-weight="400">a</text>
<text x="43" y="348" fill="#6F6A5E" font-weight="400">l</text>
<text x="52" y="348" fill="#6F6A5E" font-weight="400">l</text>
<text x="61" y="348" fill="#6F6A5E" font-weight="400">-</text>
<text x="70" y="348" fill="#6F6A5E" font-weight="400">o</text>
<text x="79" y="348" fill="#6F6A5E" font-weight="400">p</text>
<text x="88" y="348" fill="#6F6A5E" font-weight="400">u</text>
<text x="97" y="348" fill="#6F6A5E" font-weight="400">s</text>
<text x="106" y="348" fill="#6F6A5E" font-weight="400">-</text>
<text x="115" y="348" fill="#6F6A5E" font-weight="400">5</text>
<text x="313" y="348" fill="#6F6A5E" font-weight="400">$</text>
<text x="322" y="348" fill="#6F6A5E" font-weight="400">0</text>
<text x="331" y="348" fill="#6F6A5E" font-weight="400">.</text>
<text x="340" y="348" fill="#6F6A5E" font-weight="400">3</text>
<text x="349" y="348" fill="#6F6A5E" font-weight="400">1</text>
<text x="358" y="348" fill="#6F6A5E" font-weight="400">8</text>
<text x="385" y="348" fill="#6F6A5E" font-weight="400">y</text>
<text x="394" y="348" fill="#6F6A5E" font-weight="400">o</text>
<text x="403" y="348" fill="#6F6A5E" font-weight="400">u</text>
<text x="412" y="348" fill="#6F6A5E" font-weight="400">r</text>
<text x="430" y="348" fill="#6F6A5E" font-weight="400">p</text>
<text x="439" y="348" fill="#6F6A5E" font-weight="400">r</text>
<text x="448" y="348" fill="#6F6A5E" font-weight="400">i</text>
<text x="457" y="348" fill="#6F6A5E" font-weight="400">c</text>
<text x="466" y="348" fill="#6F6A5E" font-weight="400">i</text>
<text x="475" y="348" fill="#6F6A5E" font-weight="400">e</text>
<text x="484" y="348" fill="#6F6A5E" font-weight="400">s</text>
<text x="493" y="348" fill="#6F6A5E" font-weight="400">t</text>
<text x="511" y="348" fill="#6F6A5E" font-weight="400">a</text>
<text x="520" y="348" fill="#6F6A5E" font-weight="400">v</text>
<text x="529" y="348" fill="#6F6A5E" font-weight="400">a</text>
<text x="538" y="348" fill="#6F6A5E" font-weight="400">i</text>
<text x="547" y="348" fill="#6F6A5E" font-weight="400">l</text>
<text x="556" y="348" fill="#6F6A5E" font-weight="400">a</text>
<text x="565" y="348" fill="#6F6A5E" font-weight="400">b</text>
<text x="574" y="348" fill="#6F6A5E" font-weight="400">l</text>
<text x="583" y="348" fill="#6F6A5E" font-weight="400">e</text>
<text x="601" y="348" fill="#6F6A5E" font-weight="400">m</text>
<text x="610" y="348" fill="#6F6A5E" font-weight="400">o</text>
<text x="619" y="348" fill="#6F6A5E" font-weight="400">d</text>
<text x="628" y="348" fill="#6F6A5E" font-weight="400">e</text>
<text x="637" y="348" fill="#6F6A5E" font-weight="400">l</text>
<text x="34" y="366" fill="#6F6A5E" font-weight="400">s</text>
<text x="43" y="366" fill="#6F6A5E" font-weight="400">a</text>
<text x="52" y="366" fill="#6F6A5E" font-weight="400">v</text>
<text x="61" y="366" fill="#6F6A5E" font-weight="400">e</text>
<text x="70" y="366" fill="#6F6A5E" font-weight="400">d</text>
<text x="313" y="366" fill="#5F9E6E" font-weight="400">$</text>
<text x="322" y="366" fill="#5F9E6E" font-weight="400">0</text>
<text x="331" y="366" fill="#5F9E6E" font-weight="400">.</text>
<text x="340" y="366" fill="#5F9E6E" font-weight="400">2</text>
<text x="349" y="366" fill="#5F9E6E" font-weight="400">1</text>
<text x="358" y="366" fill="#5F9E6E" font-weight="400">4</text>
<text x="385" y="366" fill="#6F6A5E" font-weight="400">a</text>
<text x="394" y="366" fill="#6F6A5E" font-weight="400">f</text>
<text x="403" y="366" fill="#6F6A5E" font-weight="400">f</text>
<text x="412" y="366" fill="#6F6A5E" font-weight="400">i</text>
<text x="421" y="366" fill="#6F6A5E" font-weight="400">n</text>
<text x="430" y="366" fill="#6F6A5E" font-weight="400">i</text>
<text x="439" y="366" fill="#6F6A5E" font-weight="400">t</text>
<text x="448" y="366" fill="#6F6A5E" font-weight="400">y</text>
<text x="466" y="366" fill="#6F6A5E" font-weight="400">p</text>
<text x="475" y="366" fill="#6F6A5E" font-weight="400">i</text>
<text x="484" y="366" fill="#6F6A5E" font-weight="400">c</text>
<text x="493" y="366" fill="#6F6A5E" font-weight="400">k</text>
<text x="502" y="366" fill="#6F6A5E" font-weight="400">e</text>
<text x="511" y="366" fill="#6F6A5E" font-weight="400">d</text>
<text x="520" y="366" fill="#6F6A5E" font-weight="400">,</text>
<text x="538" y="366" fill="#6F6A5E" font-weight="400">y</text>
<text x="547" y="366" fill="#6F6A5E" font-weight="400">o</text>
<text x="556" y="366" fill="#6F6A5E" font-weight="400">u</text>
<text x="574" y="366" fill="#6F6A5E" font-weight="400">d</text>
<text x="583" y="366" fill="#6F6A5E" font-weight="400">i</text>
<text x="592" y="366" fill="#6F6A5E" font-weight="400">d</text>
<text x="610" y="366" fill="#6F6A5E" font-weight="400">n</text>
<text x="619" y="366" fill="#6F6A5E" font-weight="400">o</text>
<text x="628" y="366" fill="#6F6A5E" font-weight="400">t</text>
<text x="34" y="402" fill="#6F6A5E" font-weight="400">E</text>
<text x="43" y="402" fill="#6F6A5E" font-weight="400">s</text>
<text x="52" y="402" fill="#6F6A5E" font-weight="400">t</text>
<text x="61" y="402" fill="#6F6A5E" font-weight="400">e</text>
<text x="70" y="402" fill="#6F6A5E" font-weight="400">l</text>
<text x="79" y="402" fill="#6F6A5E" font-weight="400">l</text>
<text x="88" y="402" fill="#6F6A5E" font-weight="400">e</text>
<text x="106" y="402" fill="#6F6A5E" font-weight="400">t</text>
<text x="115" y="402" fill="#6F6A5E" font-weight="400">o</text>
<text x="124" y="402" fill="#6F6A5E" font-weight="400">o</text>
<text x="133" y="402" fill="#6F6A5E" font-weight="400">k</text>
<text x="151" y="402" fill="#6F6A5E" font-weight="400">n</text>
<text x="160" y="402" fill="#6F6A5E" font-weight="400">o</text>
<text x="169" y="402" fill="#6F6A5E" font-weight="400">n</text>
<text x="178" y="402" fill="#6F6A5E" font-weight="400">e</text>
<text x="196" y="402" fill="#6F6A5E" font-weight="400">o</text>
<text x="205" y="402" fill="#6F6A5E" font-weight="400">f</text>
<text x="223" y="402" fill="#6F6A5E" font-weight="400">t</text>
<text x="232" y="402" fill="#6F6A5E" font-weight="400">h</text>
<text x="241" y="402" fill="#6F6A5E" font-weight="400">i</text>
<text x="250" y="402" fill="#6F6A5E" font-weight="400">s</text>
<text x="259" y="402" fill="#6F6A5E" font-weight="400">.</text>
<text x="277" y="402" fill="#6F6A5E" font-weight="400">B</text>
<text x="286" y="402" fill="#6F6A5E" font-weight="400">Y</text>
<text x="295" y="402" fill="#6F6A5E" font-weight="400">O</text>
<text x="304" y="402" fill="#6F6A5E" font-weight="400">K</text>
<text x="322" y="402" fill="#6F6A5E" font-weight="400">m</text>
<text x="331" y="402" fill="#6F6A5E" font-weight="400">e</text>
<text x="340" y="402" fill="#6F6A5E" font-weight="400">a</text>
<text x="349" y="402" fill="#6F6A5E" font-weight="400">n</text>
<text x="358" y="402" fill="#6F6A5E" font-weight="400">s</text>
<text x="376" y="402" fill="#6F6A5E" font-weight="400">y</text>
<text x="385" y="402" fill="#6F6A5E" font-weight="400">o</text>
<text x="394" y="402" fill="#6F6A5E" font-weight="400">u</text>
<text x="403" y="402" fill="#6F6A5E" font-weight="400">r</text>
<text x="421" y="402" fill="#6F6A5E" font-weight="400">k</text>
<text x="430" y="402" fill="#6F6A5E" font-weight="400">e</text>
<text x="439" y="402" fill="#6F6A5E" font-weight="400">y</text>
<text x="448" y="402" fill="#6F6A5E" font-weight="400">,</text>
<text x="466" y="402" fill="#6F6A5E" font-weight="400">y</text>
<text x="475" y="402" fill="#6F6A5E" font-weight="400">o</text>
<text x="484" y="402" fill="#6F6A5E" font-weight="400">u</text>
<text x="493" y="402" fill="#6F6A5E" font-weight="400">r</text>
<text x="511" y="402" fill="#6F6A5E" font-weight="400">b</text>
<text x="520" y="402" fill="#6F6A5E" font-weight="400">i</text>
<text x="529" y="402" fill="#6F6A5E" font-weight="400">l</text>
<text x="538" y="402" fill="#6F6A5E" font-weight="400">l</text>
<text x="547" y="402" fill="#6F6A5E" font-weight="400">.</text>
</g>
</svg>
