<svg xmlns="http://www.w3.org/2000/svg" width="1832" height="788" viewBox="0 0 1832 788">
<rect width="100%" height="100%" fill="#101010"/>
<g font-family="SFMono-Regular, Menlo, Consolas, monospace" font-size="14" xml:space="preserve">
<rect x="16" y="10" width="81" height="18" fill="#E9E6DC"/>
<text x="16" y="24" fill="#101010" font-weight="700"> ESTELLE </text>
<text x="97" y="24" fill="#65A8FF" font-weight="700">  SESSION  </text>
<text x="196" y="24" fill="#E9E6DC" font-weight="400">fatelabs/estelle</text>
<text x="340" y="24" fill="#707478" font-weight="400">  ·  main  ·  repo graph current</text>
<text x="16" y="42" fill="#E4BC5D" font-weight="400"> DESIGN FIXTURE · NOT LIVE DATA · deterministic Ratatui TestBackend render</text>
<text x="16" y="60" fill="#343738" font-weight="400">┌</text>
<text x="25" y="60" fill="#70C6CC" font-weight="700"> Todo · Ctrl+T collapse </text>
<text x="241" y="60" fill="#343738" font-weight="400">───────────────────────────────────────────────────────────────────────────────────────────────────────────────────────────┌</text>
<text x="1357" y="60" fill="#70C6CC" font-weight="700"> TODO CONTRACT </text>
<text x="1492" y="60" fill="#343738" font-weight="400">────────────────────────────────────</text>
<text x="16" y="78" fill="#343738" font-weight="400">│</text>
<text x="1348" y="78" fill="#343738" font-weight="400">│</text>
<text x="16" y="96" fill="#343738" font-weight="400">│</text>
<text x="1348" y="96" fill="#343738" font-weight="400">│</text>
<text x="1366" y="96" fill="#70C6CC" font-weight="700">Binding</text>
<text x="16" y="114" fill="#343738" font-weight="400">│</text>
<text x="43" y="114" fill="#707478" font-weight="400">5 items · 2 completed · completed results remain readable</text>
<text x="1348" y="114" fill="#343738" font-weight="400">│</text>
<text x="1366" y="114" fill="#707478" font-weight="400">Toggle           </text>
<text x="1519" y="114" fill="#E9E6DC" font-weight="400">Ctrl+T                           </text>
<text x="16" y="132" fill="#343738" font-weight="400">│</text>
<text x="1348" y="132" fill="#343738" font-weight="400">│</text>
<text x="1366" y="132" fill="#707478" font-weight="400">State            </text>
<text x="1519" y="132" fill="#E9E6DC" font-weight="400">expanded                         </text>
<text x="16" y="150" fill="#343738" font-weight="400">│</text>
<text x="43" y="150" fill="#67D391" font-weight="400">✓ Ground checkout failures</text>
<text x="1348" y="150" fill="#343738" font-weight="400">│</text>
<text x="16" y="168" fill="#343738" font-weight="400">│</text>
<text x="25" y="168" fill="#E9E6DC" font-weight="400">    result: 7 files grounded · 12 symbols resolved · api/charge.ts:52 bound                                                                        </text>
<text x="1348" y="168" fill="#343738" font-weight="400">│</text>
<text x="1366" y="168" fill="#70C6CC" font-weight="700">States</text>
<text x="16" y="186" fill="#343738" font-weight="400">│</text>
<text x="1348" y="186" fill="#343738" font-weight="400">│</text>
<text x="1366" y="186" fill="#67D391" font-weight="400">✓ completed</text>
<text x="16" y="204" fill="#343738" font-weight="400">│</text>
<text x="43" y="204" fill="#67D391" font-weight="400">✓ Compare working memory with repo graph</text>
<text x="1348" y="204" fill="#343738" font-weight="400">│</text>
<text x="1366" y="204" fill="#65A8FF" font-weight="400">● in progress</text>
<text x="16" y="222" fill="#343738" font-weight="400">│</text>
<text x="25" y="222" fill="#E9E6DC" font-weight="400">    result: local charge.ts differs from the team copy · disagreement disclosed                                                                    </text>
<text x="1348" y="222" fill="#343738" font-weight="400">│</text>
<text x="1366" y="222" fill="#707478" font-weight="400">○ not started</text>
<text x="16" y="240" fill="#343738" font-weight="400">│</text>
<text x="1348" y="240" fill="#343738" font-weight="400">│</text>
<text x="16" y="258" fill="#343738" font-weight="400">│</text>
<text x="43" y="258" fill="#65A8FF" font-weight="400">● Run Estelle Orchestra</text>
<text x="1348" y="258" fill="#343738" font-weight="400">│</text>
<text x="1366" y="258" fill="#70C6CC" font-weight="700">Invariant</text>
<text x="16" y="276" fill="#343738" font-weight="400">│</text>
<text x="25" y="276" fill="#E9E6DC" font-weight="400">    Ground checkout failures and prepare review evidence · 3/8 measured                                                                            </text>
<text x="1348" y="276" fill="#343738" font-weight="400">│</text>
<text x="1357" y="276" fill="#E9E6DC" font-weight="400"> Collapse changes density,                         </text>
<text x="16" y="294" fill="#343738" font-weight="400">│</text>
<text x="1348" y="294" fill="#343738" font-weight="400">│</text>
<text x="1357" y="294" fill="#E9E6DC" font-weight="400"> never recorded results.                           </text>
<text x="16" y="312" fill="#343738" font-weight="400">│</text>
<text x="43" y="312" fill="#707478" font-weight="400">○ Score sourced evidence against the gate</text>
<text x="1348" y="312" fill="#343738" font-weight="400">│</text>
<text x="16" y="330" fill="#343738" font-weight="400">│</text>
<text x="43" y="330" fill="#707478" font-weight="400">○ Prepare PR #184 for human review</text>
<text x="1348" y="330" fill="#343738" font-weight="400">│</text>
<text x="1366" y="330" fill="#70C6CC" font-weight="700">Source</text>
<text x="16" y="348" fill="#343738" font-weight="400">│</text>
<text x="1348" y="348" fill="#343738" font-weight="400">│</text>
<text x="1357" y="348" fill="#E9E6DC" font-weight="400"> Session task state                                </text>
<text x="16" y="366" fill="#343738" font-weight="400">│</text>
<text x="1348" y="366" fill="#343738" font-weight="400">│</text>
<text x="1366" y="366" fill="#E4BC5D" font-weight="400">Fixture values only</text>
<text x="16" y="384" fill="#343738" font-weight="400">│</text>
<text x="1348" y="384" fill="#343738" font-weight="400">│</text>
<text x="16" y="402" fill="#343738" font-weight="400">│</text>
<text x="1348" y="402" fill="#343738" font-weight="400">│</text>
<text x="16" y="420" fill="#343738" font-weight="400">│</text>
<text x="1348" y="420" fill="#343738" font-weight="400">│</text>
<text x="16" y="438" fill="#343738" font-weight="400">│</text>
<text x="1348" y="438" fill="#343738" font-weight="400">│</text>
<text x="16" y="456" fill="#343738" font-weight="400">│</text>
<text x="1348" y="456" fill="#343738" font-weight="400">│</text>
<text x="16" y="474" fill="#343738" font-weight="400">│</text>
<text x="1348" y="474" fill="#343738" font-weight="400">│</text>
<text x="16" y="492" fill="#343738" font-weight="400">│</text>
<text x="1348" y="492" fill="#343738" font-weight="400">│</text>
<text x="16" y="510" fill="#343738" font-weight="400">│</text>
<text x="1348" y="510" fill="#343738" font-weight="400">│</text>
<text x="16" y="528" fill="#343738" font-weight="400">│</text>
<text x="1348" y="528" fill="#343738" font-weight="400">│</text>
<text x="16" y="546" fill="#343738" font-weight="400">│</text>
<text x="1348" y="546" fill="#343738" font-weight="400">│</text>
<text x="16" y="564" fill="#343738" font-weight="400">│</text>
<text x="1348" y="564" fill="#343738" font-weight="400">│</text>
<text x="16" y="582" fill="#343738" font-weight="400">│</text>
<text x="1348" y="582" fill="#343738" font-weight="400">│</text>
<text x="16" y="600" fill="#343738" font-weight="400">│</text>
<text x="1348" y="600" fill="#343738" font-weight="400">│</text>
<text x="16" y="618" fill="#343738" font-weight="400">│</text>
<text x="1348" y="618" fill="#343738" font-weight="400">│</text>
<text x="16" y="636" fill="#343738" font-weight="400">│</text>
<text x="1348" y="636" fill="#343738" font-weight="400">│</text>
<text x="16" y="654" fill="#343738" font-weight="400">│</text>
<text x="1348" y="654" fill="#343738" font-weight="400">│</text>
<text x="16" y="672" fill="#333536" font-weight="400">────────────────────────────────────────────────────────────────────────────────────────────────────────────────────────────────────────────────────────────────────────────────────────────────────────</text>
<text x="16" y="690" fill="#70C6CC" font-weight="700">› </text>
<text x="34" y="690" fill="#707478" font-weight="400">Ask Estelle…</text>
<rect x="16" y="730" width="54" height="18" fill="#121212"/>
<text x="16" y="744" fill="#70C6CC" font-weight="700"> todo </text>
<rect x="70" y="730" width="162" height="18" fill="#121212"/>
<text x="70" y="744" fill="#E9E6DC" font-weight="400">GPT-5 · auto route</text>
<rect x="232" y="730" width="243" height="18" fill="#121212"/>
<text x="232" y="744" fill="#707478" font-weight="400">   ~/Desktop/estelle   main</text>
<rect x="475" y="730" width="1341" height="18" fill="#121212"/>
<text x="475" y="744" fill="#E9E6DC" font-weight="400">                                                   context: 18%                                                                                      </text>
<rect x="16" y="748" width="1800" height="18" fill="#121212"/>
</g>
</svg>
